<?xml version="1.0" encoding="utf-8" ?><svg xmlns="http://www.w3.org/2000/svg" version="1.1" viewBox="-231.554535 -231.554535 786.514371 463.109375"><polygon points="339.999374,-175.160846 339.999374,-175.564118 339.999374,-177.989273 339.999374,-178.392545 339.999374,-180.817700 339.999374,-181.220972 339.999374,-183.646127 339.999374,-184.049399 339.999374,-186.474554 339.999374,-186.877826 339.999374,-189.302981 339.999374,-189.706253 339.999374,-192.131409 339.999374,-192.534680 339.999374,-194.959836 337.795190,-194.738865 336.839491,-194.628379 335.270598,-194.435030 334.342520,-192.534680 334.198889,-191.987778 333.740374,-190.308399 333.121656,-188.098690 333.121656,-188.082117 332.486365,-185.905554 331.933937,-184.065972 331.834501,-183.728991 331.160539,-181.574525 330.635734,-179.939341 330.470005,-179.436632 329.762899,-177.315312 329.210472,-175.685652 329.044743,-175.205040 328.304491,-173.116865 327.636054,-171.282807 327.547666,-171.045263 326.774268,-168.990234 325.989821,-166.946254 325.895908,-166.714234 325.183277,-164.924370 324.365685,-162.913535 323.967938,-161.957836 323.531520,-160.919273 322.680782,-158.941584 321.818996,-156.980468 321.818996,-156.974943 320.940637,-155.024875 320.045705,-153.091380 319.404889,-151.737934 319.134200,-151.174458 318.211647,-149.268584 317.278045,-147.373759 316.670375,-146.174992 316.327870,-145.495507 315.361122,-143.633827 314.383326,-141.783196 313.527064,-140.203254 313.388957,-139.949138 312.383540,-138.126128 311.361550,-136.319691 310.328511,-134.524303 309.842375,-133.690138 309.284423,-132.739963 308.223763,-130.972196 307.152055,-129.215478 306.063773,-127.475332 305.384288,-126.403624 304.964443,-125.746235 303.854064,-124.028187 302.727113,-122.326711 301.589113,-120.636284 300.440064,-118.956905 299.683239,-117.874148 299.274443,-117.294099 298.097773,-115.642342 296.910055,-114.001634 295.711288,-112.371973 294.495948,-110.758886 293.269560,-109.156847 292.032123,-107.565857 291.407880,-106.770362 290.783637,-105.985915 289.518579,-104.422546 288.247997,-102.864702 286.960841,-101.323430 285.657113,-99.798731 284.347861,-98.279556 283.022036,-96.776954 281.690686,-95.279877 280.342764,-93.799372 278.983793,-92.329916 277.608249,-90.877032 276.227181,-89.429673 274.829541,-87.998886 273.420851,-86.579149 272.001114,-85.170459 270.570327,-83.772819 269.122968,-82.391751 267.670084,-81.016207 266.200628,-79.657236 264.720123,-78.309314 263.223046,-76.977964 261.720444,-75.652139 260.201269,-74.342887 258.676570,-73.039159 257.135298,-71.752003 255.577454,-70.481421 254.014085,-69.216363 253.229638,-68.592120 252.434143,-67.967877 250.843153,-66.730440 249.241114,-65.504052 247.628027,-64.288712 245.998366,-63.089945 244.357658,-61.902227 242.705901,-60.725557 242.125852,-60.316761 241.043095,-59.559936 239.363716,-58.410887 237.673289,-57.272887 235.971813,-56.145936 234.253765,-55.035557 233.596376,-54.615712 232.524668,-53.936227 230.784522,-52.847945 229.027804,-51.776237 227.260037,-50.715577 226.309862,-50.157625 225.475697,-49.671489 223.680309,-48.638450 221.873872,-47.616460 220.050862,-46.611043 219.796746,-46.472936 218.216804,-45.616674 216.366173,-44.638878 214.504493,-43.672130 213.825008,-43.329625 212.626241,-42.721955 210.731416,-41.788353 208.825542,-40.865800 208.262066,-40.595111 206.908620,-39.954295 204.975125,-39.059363 203.025057,-38.181004 203.019532,-38.181004 201.058416,-37.319218 199.080727,-36.468480 198.042164,-36.032062 197.086465,-35.634315 195.075630,-34.816723 193.285766,-34.104092 193.053746,-34.010179 191.009766,-33.225732 188.954737,-32.452334 188.717193,-32.363946 186.883135,-31.695509 184.794960,-30.955257 184.314348,-30.789528 182.684688,-30.237101 180.563368,-29.529995 180.060659,-29.364266 178.425475,-28.839461 176.271009,-28.165499 175.934028,-28.066063 174.094446,-27.513635 171.917883,-26.878344 171.901310,-26.878344 169.691601,-26.259626 168.012223,-25.801111 167.465320,-25.657480 165.564970,-24.729402 165.371621,-23.160509 165.261135,-22.204810 165.040164,-20.000626 167.465320,-20.000626 167.868591,-20.000626 170.293747,-20.000626 170.697019,-20.000626 173.122174,-20.000626 173.525446,-20.000626 175.950601,-20.000626 176.353873,-20.000626 178.779028,-20.000626 179.182300,-20.000626 181.607455,-20.000626 182.010727,-20.000626 184.435882,-20.000626 184.839154,-20.000626 187.264309,-20.000626 187.667581,-20.000626 190.092737,-20.000626 190.496008,-20.000626 192.921164,-20.000626 193.324436,-20.000626 195.749591,-20.000626 196.152863,-20.000626 198.578018,-20.000626 198.981290,-20.000626 201.406445,-20.000626 201.809717,-20.000626 204.234872,-20.000626 204.638144,-20.000626 207.063299,-20.000626 207.466571,-20.000626 209.891726,-20.000626 210.294998,-20.000626 212.720154,-20.000626 213.123425,-20.000626 215.548581,-20.000626 215.951853,-20.000626 218.377008,-20.000626 218.780280,-20.000626 221.205435,-20.000626 221.608707,-20.000626 224.033862,-20.000626 224.437134,-20.000626 226.862289,-20.000626 227.265561,-20.000626 229.690716,-20.000626 230.093988,-20.000626 232.519143,-20.000626 232.922415,-20.000626 235.347571,-20.000626 235.750842,-20.000626 238.175998,-20.000626 238.579270,-20.000626 241.004425,-20.000626 241.407697,-20.000626 243.832852,-20.000626 244.236124,-20.000626 246.661279,-20.000626 247.064551,-20.000626 249.489706,-20.000626 249.892978,-20.000626 252.318133,-20.000626 252.721405,-20.000626 255.146560,-20.000626 255.549832,-20.000626 257.980512,-19.995102 258.361687,-19.984053 260.919424,-19.713364 261.123822,-19.680218 263.217521,-19.183034 265.112347,-18.520121 265.300172,-18.437257 267.211570,-17.520228 268.957240,-16.437471 270.553754,-15.205558 272.006638,-13.830014 273.315890,-12.310840 274.487036,-10.653558 275.497978,-8.836073 276.078026,-7.554442 276.348715,-6.858383 277.000579,-4.681820 277.238123,-3.565917 277.425948,-2.278762 277.553007,-0.422607 277.553007,0.422607 277.425948,2.278762 277.238123,3.565917 277.000579,4.681820 276.348715,6.858383 276.078026,7.554442 275.497978,8.836073 274.487036,10.653558 273.315890,12.310840 272.006638,13.830014 270.553754,15.205558 268.957240,16.437471 267.211570,17.520228 265.300172,18.437257 265.112347,18.520121 263.217521,19.183034 261.123822,19.680218 260.919424,19.713364 258.361687,19.984053 257.980512,19.995102 255.549832,20.000626 255.146560,20.000626 252.721405,20.000626 252.318133,20.000626 249.892978,20.000626 249.489706,20.000626 247.064551,20.000626 246.661279,20.000626 244.236124,20.000626 243.832852,20.000626 241.407697,20.000626 241.004425,20.000626 238.579270,20.000626 238.175998,20.000626 235.750842,20.000626 235.347571,20.000626 232.922415,20.000626 232.519143,20.000626 230.093988,20.000626 229.690716,20.000626 227.265561,20.000626 226.862289,20.000626 224.437134,20.000626 224.033862,20.000626 221.608707,20.000626 221.205435,20.000626 218.780280,20.000626 218.377008,20.000626 215.951853,20.000626 215.548581,20.000626 213.123425,20.000626 212.720154,20.000626 210.294998,20.000626 209.891726,20.000626 207.466571,20.000626 207.063299,20.000626 204.638144,20.000626 204.234872,20.000626 201.809717,20.000626 201.406445,20.000626 198.981290,20.000626 198.578018,20.000626 196.152863,20.000626 195.749591,20.000626 193.324436,20.000626 192.921164,20.000626 190.496008,20.000626 190.092737,20.000626 187.667581,20.000626 187.264309,20.000626 184.839154,20.000626 184.435882,20.000626 182.010727,20.000626 181.607455,20.000626 179.182300,20.000626 178.779028,20.000626 176.353873,20.000626 175.950601,20.000626 173.525446,20.000626 173.122174,20.000626 170.697019,20.000626 170.293747,20.000626 167.868591,20.000626 167.465320,20.000626 165.040164,20.000626 165.261135,22.204810 165.371621,23.160509 165.564970,24.729402 167.465320,25.657480 168.012223,25.801111 169.691601,26.259626 171.901310,26.878344 171.917883,26.878344 174.094446,27.513635 175.934028,28.066063 176.271009,28.165499 178.425475,28.839461 180.060659,29.364266 180.563368,29.529995 182.684688,30.237101 184.314348,30.789528 184.794960,30.955257 186.883135,31.695509 188.717193,32.363946 188.954737,32.452334 191.009766,33.225732 193.053746,34.010179 193.285766,34.104092 195.075630,34.816723 197.086465,35.634315 198.042164,36.032062 199.080727,36.468480 201.058416,37.319218 203.019532,38.181004 203.025057,38.181004 204.975125,39.059363 206.908620,39.954295 208.262066,40.595111 208.825542,40.865800 210.731416,41.788353 212.626241,42.721955 213.825008,43.329625 214.504493,43.672130 216.366173,44.638878 218.216804,45.616674 219.796746,46.472936 220.050862,46.611043 221.873872,47.616460 223.680309,48.638450 225.475697,49.671489 226.309862,50.157625 227.260037,50.715577 229.027804,51.776237 230.784522,52.847945 232.524668,53.936227 233.596376,54.615712 234.253765,55.035557 235.971813,56.145936 237.673289,57.272887 239.363716,58.410887 241.043095,59.559936 242.125852,60.316761 242.705901,60.725557 244.357658,61.902227 245.998366,63.089945 247.628027,64.288712 249.241114,65.504052 250.843153,66.730440 252.434143,67.967877 253.229638,68.592120 254.014085,69.216363 255.577454,70.481421 257.135298,71.752003 258.676570,73.039159 260.201269,74.342887 261.720444,75.652139 263.223046,76.977964 264.720123,78.309314 266.200628,79.657236 267.670084,81.016207 269.122968,82.391751 270.570327,83.772819 272.001114,85.170459 273.420851,86.579149 274.829541,87.998886 276.227181,89.429673 277.608249,90.877032 278.983793,92.329916 280.342764,93.799372 281.690686,95.279877 283.022036,96.776954 284.347861,98.279556 285.657113,99.798731 286.960841,101.323430 288.247997,102.864702 289.518579,104.422546 290.783637,105.985915 291.407880,106.770362 292.032123,107.565857 293.269560,109.156847 294.495948,110.758886 295.711288,112.371973 296.910055,114.001634 298.097773,115.642342 299.274443,117.294099 299.683239,117.874148 300.440064,118.956905 301.589113,120.636284 302.727113,122.326711 303.854064,124.028187 304.964443,125.746235 305.384288,126.403624 306.063773,127.475332 307.152055,129.215478 308.223763,130.972196 309.284423,132.739963 309.842375,133.690138 310.328511,134.524303 311.361550,136.319691 312.383540,138.126128 313.388957,139.949138 313.527064,140.203254 314.383326,141.783196 315.361122,143.633827 316.327870,145.495507 316.670375,146.174992 317.278045,147.373759 318.211647,149.268584 319.134200,151.174458 319.404889,151.737934 320.045705,153.091380 320.940637,155.024875 321.818996,156.974943 321.818996,156.980468 322.680782,158.941584 323.531520,160.919273 323.967938,161.957836 324.365685,162.913535 325.183277,164.924370 325.895908,166.714234 325.989821,166.946254 326.774268,168.990234 327.547666,171.045263 327.636054,171.282807 328.304491,173.116865 329.044743,175.205040 329.210472,175.685652 329.762899,177.315312 330.470005,179.436632 330.635734,179.939341 331.160539,181.574525 331.834501,183.728991 331.933937,184.065972 332.486365,185.905554 333.121656,188.082117 333.121656,188.098690 333.740374,190.308399 334.198889,191.987777 334.342520,192.534680 335.270598,194.435030 336.839491,194.628379 337.795190,194.738865 339.999374,194.959836 339.999374,192.534680 339.999374,192.131409 339.999374,189.706253 339.999374,189.302981 339.999374,186.877826 339.999374,186.474554 339.999374,184.049399 339.999374,183.646127 339.999374,181.220972 339.999374,180.817700 339.999374,178.392545 339.999374,177.989273 339.999374,175.564118 339.999374,175.160846 339.999374,172.735691 339.999374,172.332419 339.999374,169.907263 339.999374,169.503992 339.999374,167.078836 339.999374,166.675564 339.999374,164.250409 339.999374,163.847137 339.999374,161.421982 339.999374,161.018710 339.999374,158.593555 339.999374,158.190283 339.999374,155.765128 339.999374,155.361856 339.999374,152.936701 339.999374,152.533429 339.999374,150.108274 339.999374,149.705002 339.999374,147.279846 339.999374,146.876575 339.999374,144.451419 339.999374,144.048147 339.999374,141.622992 339.999374,141.219720 339.999374,138.794565 339.999374,138.391293 339.999374,135.966138 339.999374,135.562866 339.999374,133.137711 339.999374,132.734439 339.999374,130.309284 339.999374,129.906012 339.999374,127.480857 339.999374,127.077585 339.999374,124.652429 339.999374,124.249158 339.999374,121.824002 339.999374,121.420730 339.999374,118.995575 339.999374,118.592303 339.999374,116.167148 339.999374,115.763876 339.999374,113.338721 339.999374,112.935449 339.999374,110.510294 339.999374,110.107022 339.999374,107.681867 339.999374,107.278595 339.999374,104.853440 339.999374,104.450168 340.004898,102.019488 340.015947,101.638313 340.286636,99.080576 340.319782,98.876178 340.816966,96.782479 341.479879,94.887653 341.562743,94.699828 342.479772,92.788430 343.562529,91.042760 344.794442,89.446246 346.169986,87.993362 347.689160,86.684110 349.346442,85.512964 351.163927,84.502022 352.445558,83.921974 353.141617,83.651285 355.318180,82.999421 356.434083,82.761877 357.721238,82.574052 359.577393,82.446993 360.422607,82.446993 362.278762,82.574052 363.565917,82.761877 364.681820,82.999421 366.858383,83.651285 367.554442,83.921974 368.836073,84.502022 370.653558,85.512964 372.310840,86.684110 373.830014,87.993362 375.205558,89.446246 376.437471,91.042760 377.520228,92.788430 378.437257,94.699828 378.520121,94.887653 379.183034,96.782479 379.680218,98.876178 379.713364,99.080576 379.984053,101.638313 379.995102,102.019488 380.000626,104.450168 380.000626,104.853440 380.000626,107.278595 380.000626,107.681867 380.000626,110.107022 380.000626,110.510294 380.000626,112.935449 380.000626,113.338721 380.000626,115.763876 380.000626,116.167148 380.000626,118.592303 380.000626,118.995575 380.000626,121.420730 380.000626,121.824002 380.000626,124.249158 380.000626,124.652429 380.000626,127.077585 380.000626,127.480857 380.000626,129.906012 380.000626,130.309284 380.000626,132.734439 380.000626,133.137711 380.000626,135.562866 380.000626,135.966138 380.000626,138.391293 380.000626,138.794565 380.000626,141.219720 380.000626,141.622992 380.000626,144.048147 380.000626,144.451419 380.000626,146.876575 380.000626,147.279846 380.000626,149.705002 380.000626,150.108274 380.000626,152.533429 380.000626,152.936701 380.000626,155.361856 380.000626,155.765128 380.000626,158.190283 380.000626,158.593555 380.000626,161.018710 380.000626,161.421982 380.000626,163.847137 380.000626,164.250409 380.000626,166.675564 380.000626,167.078836 380.000626,169.503992 380.000626,169.907263 380.000626,172.332419 380.000626,172.735691 380.000626,175.160846 380.000626,175.564118 380.000626,177.989273 380.000626,178.392545 380.000626,180.817700 380.000626,181.220972 380.000626,183.646127 380.000626,184.049399 380.000626,186.474554 380.000626,186.877826 380.000626,189.302981 380.000626,189.706253 380.000626,192.131409 380.000626,192.534680 380.000626,194.959836 382.204810,194.738865 383.160509,194.628379 384.729402,194.435030 385.657480,192.534680 385.801111,191.987777 386.259626,190.308399 386.878344,188.098690 386.878344,188.082117 387.513635,185.905554 388.066063,184.065972 388.165499,183.728991 388.839461,181.574525 389.364266,179.939341 389.529995,179.436632 390.237101,177.315312 390.789528,175.685652 390.955257,175.205040 391.695509,173.116865 392.363946,171.282807 392.452334,171.045263 393.225732,168.990234 394.010179,166.946254 394.104092,166.714234 394.816723,164.924370 395.634315,162.913535 396.032062,161.957836 396.468480,160.919273 397.319218,158.941584 398.181004,156.980468 398.181004,156.974943 399.059363,155.024875 399.954295,153.091380 400.595111,151.737934 400.865800,151.174458 401.788353,149.268584 402.721955,147.373759 403.329625,146.174992 403.672130,145.495507 404.638878,143.633827 405.616674,141.783196 406.472936,140.203254 406.611043,139.949138 407.616460,138.126128 408.638450,136.319691 409.671489,134.524303 410.157625,133.690138 410.715577,132.739963 411.776237,130.972196 412.847945,129.215478 413.936227,127.475332 414.615712,126.403624 415.035557,125.746235 416.145936,124.028187 417.272887,122.326711 418.410887,120.636284 419.559936,118.956905 420.316761,117.874148 420.725557,117.294099 421.902227,115.642342 423.089945,114.001634 424.288712,112.371973 425.504052,110.758886 426.730440,109.156847 427.967877,107.565857 428.592120,106.770362 429.216363,105.985915 430.481421,104.422546 431.752003,102.864702 433.039159,101.323430 434.342887,99.798731 435.652139,98.279556 436.977964,96.776954 438.309314,95.279877 439.657236,93.799372 441.016207,92.329916 442.391751,90.877032 443.772819,89.429673 445.170459,87.998886 446.579149,86.579149 447.998886,85.170459 449.429673,83.772819 450.877032,82.391751 452.329916,81.016207 453.799372,79.657236 455.279877,78.309314 456.776954,76.977964 458.279556,75.652139 459.798731,74.342887 461.323430,73.039159 462.864702,71.752003 464.422546,70.481421 465.985915,69.216363 466.770362,68.592120 467.565857,67.967877 469.156847,66.730440 470.758886,65.504052 472.371973,64.288712 474.001634,63.089945 475.642342,61.902227 477.294099,60.725557 477.874148,60.316761 478.956905,59.559936 480.636284,58.410887 482.326711,57.272887 484.028187,56.145936 485.746235,55.035557 486.403624,54.615712 487.475332,53.936227 489.215478,52.847945 490.972196,51.776237 492.739963,50.715577 493.690138,50.157625 494.524303,49.671489 496.319691,48.638450 498.126128,47.616460 499.949138,46.611043 500.203254,46.472936 501.783196,45.616674 503.633827,44.638878 505.495507,43.672130 506.174992,43.329625 507.373759,42.721955 509.268584,41.788353 511.174458,40.865800 511.737934,40.595111 513.091380,39.954295 515.024875,39.059363 516.974943,38.181004 516.980468,38.181004 518.941584,37.319218 520.919273,36.468480 521.957836,36.032062 522.913535,35.634315 524.924370,34.816723 526.714234,34.104092 526.946254,34.010179 528.990234,33.225732 531.045263,32.452334 531.282807,32.363946 533.116865,31.695509 535.205040,30.955257 535.685652,30.789528 537.315312,30.237101 539.436632,29.529995 539.939341,29.364266 541.574525,28.839461 543.728991,28.165499 544.065972,28.066063 545.905554,27.513635 548.082117,26.878344 548.098690,26.878344 550.308399,26.259626 551.987777,25.801111 552.534680,25.657480 554.435030,24.729402 554.628379,23.160509 554.738865,22.204810 554.959836,20.000626 552.534680,20.000626 552.131409,20.000626 549.706253,20.000626 549.302981,20.000626 546.877826,20.000626 546.474554,20.000626 544.049399,20.000626 543.646127,20.000626 541.220972,20.000626 540.817700,20.000626 538.392545,20.000626 537.989273,20.000626 535.564118,20.000626 535.160846,20.000626 532.735691,20.000626 532.332419,20.000626 529.907263,20.000626 529.503992,20.000626 527.078836,20.000626 526.675564,20.000626 524.250409,20.000626 523.847137,20.000626 521.421982,20.000626 521.018710,20.000626 518.593555,20.000626 518.190283,20.000626 515.765128,20.000626 515.361856,20.000626 512.936701,20.000626 512.533429,20.000626 510.108274,20.000626 509.705002,20.000626 507.279846,20.000626 506.876575,20.000626 504.451419,20.000626 504.048147,20.000626 501.622992,20.000626 501.219720,20.000626 498.794565,20.000626 498.391293,20.000626 495.966138,20.000626 495.562866,20.000626 493.137711,20.000626 492.734439,20.000626 490.309284,20.000626 489.906012,20.000626 487.480857,20.000626 487.077585,20.000626 484.652429,20.000626 484.249158,20.000626 481.824002,20.000626 481.420730,20.000626 478.995575,20.000626 478.592303,20.000626 476.167148,20.000626 475.763876,20.000626 473.338721,20.000626 472.935449,20.000626 470.510294,20.000626 470.107022,20.000626 467.681867,20.000626 467.278595,20.000626 464.853440,20.000626 464.450168,20.000626 462.019488,19.995102 461.638313,19.984053 459.080576,19.713364 458.876178,19.680218 456.782479,19.183034 454.887653,18.520121 454.699828,18.437257 452.788430,17.520228 451.042760,16.437471 449.446246,15.205558 447.993362,13.830014 446.684110,12.310840 445.512964,10.653558 444.502022,8.836073 443.921974,7.554442 443.651285,6.858383 442.999421,4.681820 442.761877,3.565917 442.574052,2.278762 442.446993,0.422607 442.446993,-0.422607 442.574052,-2.278762 442.761877,-3.565917 442.999421,-4.681820 443.651285,-6.858383 443.921974,-7.554442 444.502022,-8.836073 445.512964,-10.653558 446.684110,-12.310840 447.993362,-13.830014 449.446246,-15.205558 451.042760,-16.437471 452.788430,-17.520228 454.699828,-18.437257 454.887653,-18.520121 456.782479,-19.183034 458.876178,-19.680218 459.080576,-19.713364 461.638313,-19.984053 462.019488,-19.995102 464.450168,-20.000626 464.853440,-20.000626 467.278595,-20.000626 467.681867,-20.000626 470.107022,-20.000626 470.510294,-20.000626 472.935449,-20.000626 473.338721,-20.000626 475.763876,-20.000626 476.167148,-20.000626 478.592303,-20.000626 478.995575,-20.000626 481.420730,-20.000626 481.824002,-20.000626 484.249158,-20.000626 484.652429,-20.000626 487.077585,-20.000626 487.480857,-20.000626 489.906012,-20.000626 490.309284,-20.000626 492.734439,-20.000626 493.137711,-20.000626 495.562866,-20.000626 495.966138,-20.000626 498.391293,-20.000626 498.794565,-20.000626 501.219720,-20.000626 501.622992,-20.000626 504.048147,-20.000626 504.451419,-20.000626 506.876575,-20.000626 507.279846,-20.000626 509.705002,-20.000626 510.108274,-20.000626 512.533429,-20.000626 512.936701,-20.000626 515.361856,-20.000626 515.765128,-20.000626 518.190283,-20.000626 518.593555,-20.000626 521.018710,-20.000626 521.421982,-20.000626 523.847137,-20.000626 524.250409,-20.000626 526.675564,-20.000626 527.078836,-20.000626 529.503992,-20.000626 529.907263,-20.000626 532.332419,-20.000626 532.735691,-20.000626 535.160846,-20.000626 535.564118,-20.000626 537.989273,-20.000626 538.392545,-20.000626 540.817700,-20.000626 541.220972,-20.000626 543.646127,-20.000626 544.049399,-20.000626 546.474554,-20.000626 546.877826,-20.000626 549.302981,-20.000626 549.706253,-20.000626 552.131409,-20.000626 552.534680,-20.000626 554.959836,-20.000626 554.738865,-22.204810 554.628379,-23.160509 554.435030,-24.729402 552.534680,-25.657480 551.987777,-25.801111 550.308399,-26.259626 548.098690,-26.878344 548.082117,-26.878344 545.905554,-27.513635 544.065972,-28.066063 543.728991,-28.165499 541.574525,-28.839461 539.939341,-29.364266 539.436632,-29.529995 537.315312,-30.237101 535.685652,-30.789528 535.205040,-30.955257 533.116865,-31.695509 531.282807,-32.363946 531.045263,-32.452334 528.990234,-33.225732 526.946254,-34.010179 526.714234,-34.104092 524.924370,-34.816723 522.913535,-35.634315 521.957836,-36.032062 520.919273,-36.468480 518.941584,-37.319218 516.980468,-38.181004 516.974943,-38.181004 515.024875,-39.059363 513.091380,-39.954295 511.737934,-40.595111 511.174458,-40.865800 509.268584,-41.788353 507.373759,-42.721955 506.174992,-43.329625 505.495507,-43.672130 503.633827,-44.638878 501.783196,-45.616674 500.203254,-46.472936 499.949138,-46.611043 498.126128,-47.616460 496.319691,-48.638450 494.524303,-49.671489 493.690138,-50.157625 492.739963,-50.715577 490.972196,-51.776237 489.215478,-52.847945 487.475332,-53.936227 486.403624,-54.615712 485.746235,-55.035557 484.028187,-56.145936 482.326711,-57.272887 480.636284,-58.410887 478.956905,-59.559936 477.874148,-60.316761 477.294099,-60.725557 475.642342,-61.902227 474.001634,-63.089945 472.371973,-64.288712 470.758886,-65.504052 469.156847,-66.730440 467.565857,-67.967877 466.770362,-68.592120 465.985915,-69.216363 464.422546,-70.481421 462.864702,-71.752003 461.323430,-73.039159 459.798731,-74.342887 458.279556,-75.652139 456.776954,-76.977964 455.279877,-78.309314 453.799372,-79.657236 452.329916,-81.016207 450.877032,-82.391751 449.429673,-83.772819 447.998886,-85.170459 446.579149,-86.579149 445.170459,-87.998886 443.772819,-89.429673 442.391751,-90.877032 441.016207,-92.329916 439.657236,-93.799372 438.309314,-95.279877 436.977964,-96.776954 435.652139,-98.279556 434.342887,-99.798731 433.039159,-101.323430 431.752003,-102.864702 430.481421,-104.422546 429.216363,-105.985915 428.592120,-106.770362 427.967877,-107.565857 426.730440,-109.156847 425.504052,-110.758886 424.288712,-112.371973 423.089945,-114.001634 421.902227,-115.642342 420.725557,-117.294099 420.316761,-117.874148 419.559936,-118.956905 418.410887,-120.636284 417.272887,-122.326711 416.145936,-124.028187 415.035557,-125.746235 414.615712,-126.403624 413.936227,-127.475332 412.847945,-129.215478 411.776237,-130.972196 410.715577,-132.739963 410.157625,-133.690138 409.671489,-134.524303 408.638450,-136.319691 407.616460,-138.126128 406.611043,-139.949138 406.472936,-140.203254 405.616674,-141.783196 404.638878,-143.633827 403.672130,-145.495507 403.329625,-146.174992 402.721955,-147.373759 401.788353,-149.268584 400.865800,-151.174458 400.595111,-151.737934 399.954295,-153.091380 399.059363,-155.024875 398.181004,-156.974943 398.181004,-156.980468 397.319218,-158.941584 396.468480,-160.919273 396.032062,-161.957836 395.634315,-162.913535 394.816723,-164.924370 394.104092,-166.714234 394.010179,-166.946254 393.225732,-168.990234 392.452334,-171.045263 392.363946,-171.282807 391.695509,-173.116865 390.955257,-175.205040 390.789528,-175.685652 390.237101,-177.315312 389.529995,-179.436632 389.364266,-179.939341 388.839461,-181.574525 388.165499,-183.728991 388.066063,-184.065972 387.513635,-185.905554 386.878344,-188.082117 386.878344,-188.098690 386.259626,-190.308399 385.801111,-191.987778 385.657480,-192.534680 384.729402,-194.435030 383.160509,-194.628379 382.204810,-194.738865 380.000626,-194.959836 380.000626,-192.534680 380.000626,-192.131409 380.000626,-189.706253 380.000626,-189.302981 380.000626,-186.877826 380.000626,-186.474554 380.000626,-184.049399 380.000626,-183.646127 380.000626,-181.220972 380.000626,-180.817700 380.000626,-178.392545 380.000626,-177.989273 380.000626,-175.564118 380.000626,-175.160846 380.000626,-172.735691 380.000626,-172.332419 380.000626,-169.907263 380.000626,-169.503992 380.000626,-167.078836 380.000626,-166.675564 380.000626,-164.250409 380.000626,-163.847137 380.000626,-161.421982 380.000626,-161.018710 380.000626,-158.593555 380.000626,-158.190283 380.000626,-155.765128 380.000626,-155.361856 380.000626,-152.936701 380.000626,-152.533429 380.000626,-150.108274 380.000626,-149.705002 380.000626,-147.279846 380.000626,-146.876575 380.000626,-144.451419 380.000626,-144.048147 380.000626,-141.622992 380.000626,-141.219720 380.000626,-138.794565 380.000626,-138.391293 380.000626,-135.966138 380.000626,-135.562866 380.000626,-133.137711 380.000626,-132.734439 380.000626,-130.309284 380.000626,-129.906012 380.000626,-127.480857 380.000626,-127.077585 380.000626,-124.652429 380.000626,-124.249158 380.000626,-121.824002 380.000626,-121.420730 380.000626,-118.995575 380.000626,-118.592303 380.000626,-116.167148 380.000626,-115.763876 380.000626,-113.338721 380.000626,-112.935449 380.000626,-110.510294 380.000626,-110.107022 380.000626,-107.681867 380.000626,-107.278595 380.000626,-104.853440 380.000626,-104.450168 379.995102,-102.019488 379.984053,-101.638313 379.713364,-99.080576 379.680218,-98.876178 379.183034,-96.782479 378.520121,-94.887653 378.437257,-94.699828 377.520228,-92.788430 376.437471,-91.042760 375.205558,-89.446246 373.830014,-87.993362 372.310840,-86.684110 370.653558,-85.512964 368.836073,-84.502022 367.554442,-83.921974 366.858383,-83.651285 364.681820,-82.999421 363.565917,-82.761877 362.278762,-82.574052 360.422607,-82.446993 359.577393,-82.446993 357.721238,-82.574052 356.434083,-82.761877 355.318180,-82.999421 353.141617,-83.651285 352.445558,-83.921974 351.163927,-84.502022 349.346442,-85.512964 347.689160,-86.684110 346.169986,-87.993362 344.794442,-89.446246 343.562529,-91.042760 342.479772,-92.788430 341.562743,-94.699828 341.479879,-94.887653 340.816966,-96.782479 340.319782,-98.876178 340.286636,-99.080576 340.015947,-101.638313 340.004898,-102.019488 339.999374,-104.450168 339.999374,-104.853440 339.999374,-107.278595 339.999374,-107.681867 339.999374,-110.107022 339.999374,-110.510294 339.999374,-112.935449 339.999374,-113.338721 339.999374,-115.763876 339.999374,-116.167148 339.999374,-118.592303 339.999374,-118.995575 339.999374,-121.420730 339.999374,-121.824002 339.999374,-124.249158 339.999374,-124.652429 339.999374,-127.077585 339.999374,-127.480857 339.999374,-129.906012 339.999374,-130.309284 339.999374,-132.734439 339.999374,-133.137711 339.999374,-135.562866 339.999374,-135.966138 339.999374,-138.391293 339.999374,-138.794565 339.999374,-141.219720 339.999374,-141.622992 339.999374,-144.048147 339.999374,-144.451419 339.999374,-146.876575 339.999374,-147.279846 339.999374,-149.705002 339.999374,-150.108274 339.999374,-152.533429 339.999374,-152.936701 339.999374,-155.361856 339.999374,-155.765128 339.999374,-158.190283 339.999374,-158.593555 339.999374,-161.018710 339.999374,-161.421982 339.999374,-163.847137 339.999374,-164.250409 339.999374,-166.675564 339.999374,-167.078836 339.999374,-169.503992 339.999374,-169.907263 339.999374,-172.332419 339.999374,-172.735691" stroke="black" fill="none" /><polygon points="-87.374847,214.441559 -85.558441,215.172028 -83.558441,215.953278 -82.296722,216.441559 -81.558441,216.718903 -79.558441,217.461090 -77.558441,218.179840 -76.827972,218.441559 -75.558441,218.882965 -73.558441,219.562653 -71.558441,220.226715 -70.882660,220.441559 -69.558441,220.867340 -67.558441,221.484528 -65.558441,222.086090 -64.335785,222.441559 -63.558441,222.664215 -61.558441,223.226715 -59.558441,223.765778 -57.558441,224.289215 -56.968597,224.441559 -55.558441,224.797028 -53.558441,225.281403 -51.558441,225.742340 -49.558441,226.195465 -48.413910,226.441559 -47.558441,226.625153 -45.558441,227.031403 -43.558441,227.422028 -41.558441,227.797028 -39.558441,228.156403 -37.867035,228.441559 -37.558441,228.492340 -35.558441,228.812653 -33.558441,229.117340 -31.558441,229.398590 -29.558441,229.664215 -27.558441,229.914215 -25.558441,230.140778 -23.558441,230.359528 -22.718597,230.441559 -21.558441,230.554840 -19.558441,230.734528 -17.558441,230.890778 -15.558441,231.031403 -13.558441,231.164215 -11.558441,231.273590 -9.558441,231.359528 -7.558441,231.437653 -5.558441,231.492340 -3.558441,231.531403 -1.558441,231.554840 0.441559,231.554840 2.441559,231.547028 4.441559,231.515778 6.441559,231.468903 8.441559,231.406403 10.441559,231.320465 12.441559,231.226715 14.441559,231.109528 16.441559,230.976715 18.441559,230.820465 20.441559,230.656403 22.441559,230.468903 22.718903,230.441559 24.441559,230.265778 26.441559,230.047028 28.441559,229.804840 30.441559,229.547028 32.441559,229.273590 34.441559,228.984528 36.441559,228.672028 37.867340,228.441559 38.441559,228.343903 40.441559,228.000153 42.441559,227.632965 44.441559,227.250153 46.441559,226.851715 48.406403,226.441559 48.441559,226.437653 50.441559,226.000153 52.441559,225.539215 54.441559,225.070465 56.441559,224.578278 56.968903,224.441559 58.441559,224.062653 60.441559,223.531403 62.441559,222.984528 64.336090,222.441559 64.441559,222.414215 66.441559,221.820465 68.441559,221.211090 70.441559,220.586090 70.882965,220.441559 72.441559,219.937653 74.441559,219.265778 76.441559,218.578278 76.828278,218.441559 78.441559,217.867340 80.441559,217.140778 82.297028,216.441559 82.441559,216.382965 84.441559,215.609528 86.441559,214.820465 87.375153,214.441559 88.441559,214.000153 90.441559,213.164215 92.132965,212.441559 92.441559,212.304840 94.441559,211.422028 96.441559,210.515778 96.609528,210.441559 98.441559,209.593903 100.441559,208.640778 100.851715,208.441559 102.441559,207.664215 104.441559,206.664215 104.882965,206.441559 106.441559,205.640778 108.441559,204.593903 108.734528,204.441559 110.441559,203.523590 112.414215,202.441559 112.441559,202.422028 114.441559,201.304840 115.945465,200.441559 116.441559,200.148590 118.441559,198.976715 119.336090,198.441559 120.441559,197.773590 122.441559,196.539215 122.593903,196.441559 124.441559,195.281403 125.742340,194.441559 126.441559,193.992340 128.441559,192.672028 128.781403,192.441559 130.441559,191.320465 131.726715,190.441559 132.441559,189.945465 134.441559,188.531403 134.570465,188.441559 136.441559,187.093903 137.328278,186.441559 138.441559,185.617340 140.000153,184.441559 140.441559,184.109528 142.441559,182.562653 142.601715,182.441559 144.441559,180.984528 145.117340,180.441559 146.441559,179.375153 147.570465,178.441559 148.441559,177.718903 149.961090,176.441559 150.441559,176.031403 152.281403,174.441559 152.441559,174.304840 154.441559,172.531403 154.539215,172.441559 156.441559,170.718903 156.742340,170.441559 158.441559,168.867340 158.890778,168.441559 160.441559,166.968903 160.984528,166.441559 162.441559,165.023590 163.031403,164.441559 164.441559,163.031403 165.023590,162.441559 166.441559,160.984528 166.968903,160.441559 168.441559,158.890778 168.867340,158.441559 170.441559,156.742340 170.718903,156.441559 172.441559,154.539215 172.531403,154.441559 174.304840,152.441559 174.441559,152.281403 176.031403,150.441559 176.441559,149.961090 177.718903,148.441559 178.441559,147.570465 179.375153,146.441559 180.441559,145.117340 180.984528,144.441559 182.441559,142.601715 182.562653,142.441559 184.109528,140.441559 184.441559,140.000153 185.617340,138.441559 186.441559,137.328278 187.093903,136.441559 188.441559,134.570465 188.531403,134.441559 189.945465,132.441559 190.441559,131.726715 191.320465,130.441559 192.441559,128.781403 192.672028,128.441559 193.992340,126.441559 194.441559,125.742340 195.281403,124.441559 196.441559,122.593903 196.539215,122.441559 197.773590,120.441559 198.441559,119.336090 198.976715,118.441559 198.625153,116.441559 198.441559,116.187653 197.195465,114.441559 196.441559,113.359528 195.812653,112.441559 194.461090,110.441559 194.441559,110.414215 193.140778,108.441559 192.441559,107.351715 191.859528,106.441559 190.609528,104.441559 190.441559,104.164215 189.390778,102.441559 188.441559,100.836090 188.211090,100.441559 187.054840,98.441559 186.441559,97.359528 185.929840,96.441559 184.836090,94.441559 184.441559,93.703278 183.773590,92.441559 182.742340,90.441559 182.441559,89.851715 181.734528,88.441559 180.757965,86.441559 180.441559,85.789215 179.804840,84.441559 178.882965,82.441559 178.441559,81.468903 177.984528,80.441559 177.109528,78.441559 176.441559,76.859528 176.265778,76.441559 175.445465,74.441559 174.656403,72.441559 174.441559,71.898590 173.882965,70.441559 173.140778,68.441559 172.441559,66.507965 172.422028,66.441559 171.726715,64.441559 171.047028,62.441559 170.441559,60.570465 170.398590,60.441559 169.773590,58.441559 169.172028,56.441559 168.593903,54.441559 168.441559,53.914215 168.031403,52.441559 167.500153,50.441559 166.984528,48.441559 166.492340,46.441559 166.441559,46.218903 166.023590,44.441559 165.578278,42.441559 165.156403,40.441559 164.750153,38.441559 164.441559,36.851715 164.367340,36.441559 164.000153,34.441559 163.664215,32.441559 163.343903,30.441559 163.039215,28.441559 162.765778,26.441559 162.507965,24.441559 162.441559,23.906403 162.265778,22.441559 162.054840,20.441559 161.859528,18.441559 161.679840,16.441559 161.523590,14.441559 161.390778,12.441559 161.273590,10.441559 161.179840,8.441559 161.101715,6.441559 161.047028,4.441559 161.015778,2.441559 161.000153,0.441559 161.007965,-1.558441 161.031403,-3.558441 161.078278,-5.558441 161.140778,-7.558441 161.226715,-9.558441 161.336090,-11.558441 161.461090,-13.558441 161.609528,-15.558441 161.773590,-17.558441 161.961090,-19.558441 162.172028,-21.558441 162.398590,-23.558441 162.441559,-23.906097 162.648590,-25.558441 162.914215,-27.558441 163.211090,-29.558441 163.515778,-31.558441 163.851715,-33.558441 164.203278,-35.558441 164.441559,-36.851410 164.578278,-37.558441 164.968903,-39.558441 165.390778,-41.558441 165.828278,-43.558441 166.281403,-45.558441 166.441559,-46.218597 166.765778,-47.558441 167.273590,-49.558441 167.797028,-51.558441 168.343903,-53.558441 168.441559,-53.913910 168.914215,-55.558441 169.507965,-57.558441 170.125153,-59.558441 170.441559,-60.570160 170.757965,-61.558441 171.422028,-63.558441 172.109528,-65.558441 172.441559,-66.507660 172.820465,-67.558441 173.554840,-69.558441 174.312653,-71.558441 174.441559,-71.898285 175.093903,-73.558441 175.898590,-75.558441 176.441559,-76.859222 176.734528,-77.558441 177.593903,-79.558441 178.441559,-81.468597 178.484528,-81.558441 179.390778,-83.558441 180.328278,-85.558441 180.441559,-85.788910 181.297028,-87.558441 182.289215,-89.558441 182.441559,-89.859222 183.312653,-91.558441 184.367340,-93.558441 184.441559,-93.702972 185.445465,-95.558441 186.441559,-97.359222 186.554840,-97.558441 187.695465,-99.558441 188.441559,-100.843597 188.867340,-101.558441 190.070465,-103.558441 190.441559,-104.171722 191.304840,-105.558441 192.441559,-107.359222 192.570465,-107.558441 193.875153,-109.558441 194.441559,-110.413910 195.211090,-111.558441 196.441559,-113.359222 196.578278,-113.558441 197.992340,-115.558441 198.441559,-116.187347 199.437653,-117.558441 198.441559,-119.335785 198.304840,-119.558441 197.086090,-121.558441 196.441559,-122.593597 195.836090,-123.558441 194.562653,-125.558441 194.441559,-125.742035 193.257965,-127.558441 192.441559,-128.781097 191.922028,-129.558441 190.554840,-131.558441 190.441559,-131.726410 189.156403,-133.558441 188.441559,-134.570160 187.734528,-135.558441 186.441559,-137.327972 186.273590,-137.558441 184.781403,-139.558441 184.441559,-139.999847 183.250153,-141.558441 182.441559,-142.601410 181.687653,-143.558441 180.441559,-145.124847 180.086090,-145.558441 178.453278,-147.558441 178.441559,-147.570160 176.781403,-149.558441 176.441559,-149.960785 175.070465,-151.558441 174.441559,-152.281097 173.320465,-153.558441 172.441559,-154.538910 171.523590,-155.558441 170.441559,-156.742035 169.687653,-157.558441 168.441559,-158.890472 167.812653,-159.558441 166.441559,-160.984222 165.882965,-161.558441 164.441559,-163.031097 163.914215,-163.558441 162.441559,-165.023285 161.890778,-165.558441 160.441559,-166.968597 159.820465,-167.558441 158.441559,-168.867035 157.703278,-169.558441 156.441559,-170.718597 155.523590,-171.558441 154.441559,-172.531097 153.289215,-173.558441 152.441559,-174.304535 150.992340,-175.558441 150.441559,-176.031097 148.632965,-177.558441 148.441559,-177.718597 146.441559,-179.374847 146.211090,-179.558441 144.441559,-180.984222 143.718903,-181.558441 142.441559,-182.562347 141.156403,-183.558441 140.441559,-184.109222 138.515778,-185.558441 138.441559,-185.617035 136.441559,-187.093597 135.797028,-187.558441 134.441559,-188.531097 132.992340,-189.558441 132.441559,-189.945160 130.441559,-191.320160 130.093903,-191.558441 128.441559,-192.671722 127.101715,-193.558441 126.441559,-193.992035 124.441559,-195.281097 124.000153,-195.558441 122.441559,-196.538910 120.789215,-197.558441 120.441559,-197.773285 118.441559,-198.976410 117.453278,-199.558441 116.441559,-200.148285 114.441559,-201.304535 113.992340,-201.558441 112.441559,-202.429535 110.441559,-203.523285 110.375153,-203.558441 108.441559,-204.593597 106.609528,-205.558441 106.441559,-205.640472 104.441559,-206.663910 102.656403,-207.558441 102.441559,-207.663910 100.441559,-208.640472 98.507965,-209.558441 98.441559,-209.593597 96.441559,-210.515472 94.441559,-211.421722 94.140778,-211.558441 92.441559,-212.304535 90.441559,-213.163910 89.507965,-213.558441 88.441559,-213.999847 86.441559,-214.820160 84.578278,-215.558441 84.441559,-215.609222 82.441559,-216.382660 80.441559,-217.140472 79.297028,-217.558441 78.441559,-217.867035 76.441559,-218.577972 74.441559,-219.265472 73.578278,-219.558441 72.441559,-219.937347 70.441559,-220.585785 68.441559,-221.210785 67.312653,-221.558441 66.441559,-221.820160 64.441559,-222.413910 62.441559,-222.984222 60.441559,-223.531097 60.343903,-223.558441 58.441559,-224.062347 56.441559,-224.577972 54.441559,-225.070160 52.441559,-225.538910 52.367340,-225.558441 50.441559,-225.999847 48.441559,-226.437347 46.441559,-226.851410 44.441559,-227.249847 42.851715,-227.558441 42.441559,-227.632660 40.441559,-227.999847 38.441559,-228.343597 36.441559,-228.671722 34.441559,-228.984222 32.441559,-229.273285 30.441559,-229.546722 30.367340,-229.558441 28.441559,-229.804535 26.441559,-230.046722 24.441559,-230.265472 22.441559,-230.468597 20.441559,-230.656097 18.441559,-230.820160 16.441559,-230.976410 14.441559,-231.109222 12.441559,-231.226410 10.441559,-231.320160 8.441559,-231.406097 6.441559,-231.468597 4.441559,-231.515472 2.441559,-231.546722 0.441559,-231.554535 -1.558441,-231.554535 -3.558441,-231.531097 -5.558441,-231.492035 -7.558441,-231.437347 -9.558441,-231.359222 -11.558441,-231.273285 -13.558441,-231.163910 -15.558441,-231.038910 -17.558441,-230.890472 -19.558441,-230.734222 -21.558441,-230.554535 -23.558441,-230.359222 -25.558441,-230.140472 -27.558441,-229.913910 -29.558441,-229.663910 -30.367035,-229.558441 -31.558441,-229.398285 -33.558441,-229.117035 -35.558441,-228.812347 -37.558441,-228.492035 -39.558441,-228.156097 -41.558441,-227.796722 -42.851410,-227.558441 -43.558441,-227.421722 -45.558441,-227.031097 -47.558441,-226.624847 -49.558441,-226.195160 -51.558441,-225.742035 -52.367035,-225.558441 -53.558441,-225.281097 -55.558441,-224.796722 -57.558441,-224.288910 -59.558441,-223.765472 -60.343597,-223.558441 -61.558441,-223.226410 -63.558441,-222.663910 -65.558441,-222.085785 -67.312347,-221.558441 -67.558441,-221.484222 -69.558441,-220.867035 -71.558441,-220.226410 -73.558441,-219.562347 -73.577972,-219.558441 -75.558441,-218.882660 -77.558441,-218.179535 -79.296722,-217.558441 -79.558441,-217.460785 -81.558441,-216.718597 -83.558441,-215.952972 -84.577972,-215.558441 -85.558441,-215.171722 -87.558441,-214.367035 -89.507660,-213.558441 -89.558441,-213.538910 -91.558441,-212.687347 -93.558441,-211.820160 -94.140472,-211.558441 -95.558441,-210.921722 -97.558441,-210.007660 -98.515472,-209.558441 -99.558441,-209.062347 -101.558441,-208.101410 -102.656097,-207.558441 -103.558441,-207.109222 -105.558441,-206.101410 -106.609222,-205.558441 -107.558441,-205.062347 -109.558441,-203.999847 -110.374847,-203.558441 -111.558441,-202.913910 -113.558441,-201.804535 -113.992035,-201.558441 -115.558441,-200.663910 -117.452972,-199.558441 -117.558441,-199.499847 -119.558441,-198.304535 -120.788910,-197.558441 -121.558441,-197.085785 -123.558441,-195.835785 -123.999847,-195.558441 -125.558441,-194.562347 -127.101410,-193.558441 -127.558441,-193.257660 -129.558441,-191.921722 -130.093597,-191.558441 -131.558441,-190.554535 -132.992035,-189.558441 -133.558441,-189.156097 -135.558441,-187.734222 -135.796722,-187.558441 -137.558441,-186.273285 -138.515472,-185.558441 -139.558441,-184.781097 -141.156097,-183.558441 -141.558441,-183.249847 -143.558441,-181.687347 -143.718597,-181.558441 -145.558441,-180.085785 -146.210785,-179.558441 -147.558441,-178.452972 -148.632660,-177.558441 -149.558441,-176.781097 -150.992035,-175.558441 -151.558441,-175.070160 -153.288910,-173.558441 -153.558441,-173.320160 -155.523285,-171.558441 -155.558441,-171.523285 -157.558441,-169.687347 -157.702972,-169.558441 -159.558441,-167.812347 -159.820160,-167.558441 -161.558441,-165.882660 -161.890472,-165.558441 -163.558441,-163.913910 -163.913910,-163.558441 -165.558441,-161.890472 -165.882660,-161.558441 -167.558441,-159.820160 -167.812347,-159.558441 -169.558441,-157.702972 -169.687347,-157.558441 -171.523285,-155.558441 -171.558441,-155.523285 -173.320160,-153.558441 -173.558441,-153.288910 -175.070160,-151.558441 -175.558441,-150.992035 -176.781097,-149.558441 -177.558441,-148.632660 -178.452972,-147.558441 -179.558441,-146.210785 -180.085785,-145.558441 -181.558441,-143.718597 -181.687347,-143.558441 -183.249847,-141.558441 -183.558441,-141.156097 -184.781097,-139.558441 -185.558441,-138.515472 -186.273285,-137.558441 -187.558441,-135.796722 -187.734222,-135.558441 -189.156097,-133.558441 -189.558441,-132.992035 -190.554535,-131.558441 -191.558441,-130.093597 -191.921722,-129.558441 -193.257660,-127.558441 -193.558441,-127.101410 -194.562347,-125.558441 -195.558441,-123.999847 -195.835785,-123.558441 -197.085785,-121.558441 -197.558441,-120.788910 -198.304535,-119.558441 -199.499847,-117.558441 -199.558441,-117.452972 -200.663910,-115.558441 -201.558441,-113.992035 -201.804535,-113.558441 -202.913910,-111.558441 -203.558441,-110.374847 -203.999847,-109.558441 -205.062347,-107.558441 -205.558441,-106.609222 -206.101410,-105.558441 -207.109222,-103.558441 -207.558441,-102.656097 -208.101410,-101.558441 -209.062347,-99.558441 -209.558441,-98.515472 -210.007660,-97.558441 -210.921722,-95.558441 -211.558441,-94.140472 -211.820160,-93.558441 -212.687347,-91.558441 -213.538910,-89.558441 -213.558441,-89.507660 -214.367035,-87.558441 -215.171722,-85.558441 -215.558441,-84.577972 -215.952972,-83.558441 -216.718597,-81.558441 -217.460785,-79.558441 -217.558441,-79.296722 -218.179535,-77.558441 -218.882660,-75.558441 -219.558441,-73.577972 -219.562347,-73.558441 -220.226410,-71.558441 -220.867035,-69.558441 -221.484222,-67.558441 -221.558441,-67.312347 -222.085785,-65.558441 -222.663910,-63.558441 -223.226410,-61.558441 -223.558441,-60.343597 -223.765472,-59.558441 -224.288910,-57.558441 -224.796722,-55.558441 -225.281097,-53.558441 -225.558441,-52.367035 -225.742035,-51.558441 -226.195160,-49.558441 -226.624847,-47.558441 -227.031097,-45.558441 -227.421722,-43.558441 -227.558441,-42.851410 -227.796722,-41.558441 -228.156097,-39.558441 -228.492035,-37.558441 -228.812347,-35.558441 -229.117035,-33.558441 -229.398285,-31.558441 -229.558441,-30.367035 -229.663910,-29.558441 -229.913910,-27.558441 -230.140472,-25.558441 -230.359222,-23.558441 -230.554535,-21.558441 -230.734222,-19.558441 -230.890472,-17.558441 -231.038910,-15.558441 -231.163910,-13.558441 -231.273285,-11.558441 -231.359222,-9.558441 -231.437347,-7.558441 -231.492035,-5.558441 -231.531097,-3.558441 -231.554535,-1.558441 -231.554535,0.441559 -231.546722,2.441559 -231.515472,4.441559 -231.468597,6.441559 -231.406097,8.441559 -231.320160,10.441559 -231.226410,12.441559 -231.109222,14.441559 -230.976410,16.441559 -230.820160,18.441559 -230.656097,20.441559 -230.468597,22.441559 -230.265472,24.441559 -230.046722,26.441559 -229.804535,28.441559 -229.558441,30.367340 -229.546722,30.441559 -229.273285,32.441559 -228.984222,34.441559 -228.671722,36.441559 -228.343597,38.441559 -227.999847,40.441559 -227.632660,42.441559 -227.558441,42.851715 -227.249847,44.441559 -226.851410,46.441559 -226.437347,48.441559 -225.999847,50.441559 -225.558441,52.367340 -225.538910,52.441559 -225.070160,54.441559 -224.577972,56.441559 -224.062347,58.441559 -223.558441,60.343903 -223.531097,60.441559 -222.984222,62.441559 -222.413910,64.441559 -221.820160,66.441559 -221.558441,67.312653 -221.210785,68.441559 -220.585785,70.441559 -219.937347,72.441559 -219.558441,73.578278 -219.265472,74.441559 -218.577972,76.441559 -217.867035,78.441559 -217.558441,79.297028 -217.140472,80.441559 -216.382660,82.441559 -215.609222,84.441559 -215.558441,84.578278 -214.820160,86.441559 -213.999847,88.441559 -213.558441,89.507965 -213.163910,90.441559 -212.304535,92.441559 -211.558441,94.140778 -211.421722,94.441559 -210.515472,96.441559 -209.593597,98.441559 -209.558441,98.507965 -208.640472,100.441559 -207.663910,102.441559 -207.558441,102.656403 -206.663910,104.441559 -205.640472,106.441559 -205.558441,106.609528 -204.593597,108.441559 -203.558441,110.375153 -203.523285,110.441559 -202.429535,112.441559 -201.558441,113.992340 -201.304535,114.441559 -200.148285,116.441559 -199.558441,117.453278 -198.976410,118.441559 -197.773285,120.441559 -197.558441,120.789215 -196.538910,122.441559 -195.558441,124.000153 -195.281097,124.441559 -193.992035,126.441559 -193.558441,127.101715 -192.671722,128.441559 -191.558441,130.093903 -191.320160,130.441559 -189.945160,132.441559 -189.558441,132.992340 -188.531097,134.441559 -187.558441,135.797028 -187.093597,136.441559 -185.617035,138.441559 -185.558441,138.515778 -184.109222,140.441559 -183.558441,141.156403 -182.562347,142.441559 -181.558441,143.718903 -180.984222,144.441559 -179.558441,146.211090 -179.374847,146.441559 -177.718597,148.441559 -177.558441,148.632965 -176.031097,150.441559 -175.558441,150.992340 -174.304535,152.441559 -173.558441,153.289215 -172.531097,154.441559 -171.558441,155.523590 -170.718597,156.441559 -169.558441,157.703278 -168.867035,158.441559 -167.558441,159.820465 -166.968597,160.441559 -165.558441,161.890778 -165.023285,162.441559 -163.558441,163.914215 -163.031097,164.441559 -161.558441,165.882965 -160.984222,166.441559 -159.558441,167.812653 -158.890472,168.441559 -157.558441,169.687653 -156.742035,170.441559 -155.558441,171.523590 -154.538910,172.441559 -153.558441,173.320465 -152.281097,174.441559 -151.558441,175.070465 -149.960785,176.441559 -149.558441,176.781403 -147.570160,178.441559 -147.558441,178.453278 -145.558441,180.086090 -145.124847,180.441559 -143.558441,181.687653 -142.601410,182.441559 -141.558441,183.250153 -139.999847,184.441559 -139.558441,184.781403 -137.558441,186.273590 -137.327972,186.441559 -135.558441,187.734528 -134.570160,188.441559 -133.558441,189.156403 -131.726410,190.441559 -131.558441,190.554840 -129.558441,191.922028 -128.781097,192.441559 -127.558441,193.257965 -125.742035,194.441559 -125.558441,194.562653 -123.558441,195.836090 -122.593597,196.441559 -121.558441,197.086090 -119.558441,198.304840 -119.335785,198.441559 -117.558441,199.500153 -115.945160,200.441559 -115.558441,200.664215 -113.558441,201.804840 -112.413910,202.441559 -111.558441,202.914215 -109.558441,204.000153 -108.734222,204.441559 -107.558441,205.062653 -105.558441,206.101715 -104.890472,206.441559 -103.558441,207.109528 -101.558441,208.101715 -100.851410,208.441559 -99.558441,209.062653 -97.558441,210.000153 -96.609222,210.441559 -95.558441,210.922028 -93.558441,211.812653 -92.132660,212.441559 -91.558441,212.687653 -89.558441,213.539215 -87.558441,214.367340" stroke="black" fill="none" /><polygon points="274.441559,-1.992035 274.179840,-3.558441 273.625153,-5.558441 272.789215,-7.558441 272.441559,-8.218597 271.617340,-9.558441 270.441559,-11.093597 270.023590,-11.558441 268.441559,-13.062347 267.812653,-13.558441 266.441559,-14.492035 264.441559,-15.546722 264.406403,-15.558441 262.441559,-16.281097 260.441559,-16.749847 258.441559,-16.976410 256.441559,-16.960785 254.441559,-16.710785 252.441559,-16.210785 250.711090,-15.558441 250.441559,-15.437347 248.441559,-14.351410 247.304840,-13.558441 246.441559,-12.859222 245.093903,-11.558441 244.441559,-10.812347 243.500153,-9.558441 242.441559,-7.773285 242.328278,-7.558441 241.492340,-5.558441 240.937653,-3.558441 240.632965,-1.558441 240.562653,0.441559 240.734528,2.441559 241.148590,4.441559 241.828278,6.441559 242.441559,7.773590 242.804840,8.441559 244.140778,10.441559 244.441559,10.812653 245.976715,12.441559 246.441559,12.859528 248.441559,14.351715 248.586090,14.441559 250.441559,15.437653 252.441559,16.211090 253.234528,16.441559 254.441559,16.711090 256.441559,16.961090 258.441559,16.976715 260.441559,16.750153 261.882965,16.441559 262.441559,16.281403 264.441559,15.547028 266.441559,14.492340 266.523590,14.441559 268.441559,13.062653 269.140778,12.441559 270.441559,11.093903 270.976715,10.441559 272.312653,8.441559 272.441559,8.218903 273.289215,6.441559 273.968903,4.441559 274.382965,2.441559 274.441559,1.992340 274.554840,0.441559 274.484528,-1.558441" stroke="black" fill="none" /></svg>