<?xml version="1.0" encoding="utf-8" ?><svg xmlns="http://www.w3.org/2000/svg" version="1.1" viewBox="-300.003906 -390.933375 1190.937281 781.866750"><polygon points="282.000000,8.714844 282.675781,10.000000 283.996094,12.000000 284.000000,12.003906 285.714844,14.000000 286.000000,14.285156 287.996094,16.000000 288.000000,16.003906 290.000000,17.324219 291.285156,18.000000 292.000000,18.332031 294.000000,19.082031 296.000000,19.597656 298.000000,19.902344 300.000000,19.996094 302.000000,19.902344 304.000000,19.597656 306.000000,19.082031 308.000000,18.332031 308.714844,18.000000 310.000000,17.324219 311.996094,16.000000 312.000000,15.996094 314.000000,14.285156 314.285156,14.000000 315.996094,12.000000 316.000000,11.996094 317.324219,10.000000 318.000000,8.714844 318.332031,8.000000 319.082031,6.000000 319.597656,4.000000 319.902344,2.000000 319.996094,0.000000 319.902344,-2.000000 319.597656,-4.000000 319.082031,-6.000000 318.332031,-8.000000 318.000000,-8.714844 317.324219,-10.000000 316.000000,-11.996094 315.996094,-12.000000 314.285156,-14.000000 314.000000,-14.285156 312.000000,-15.996094 311.996094,-16.000000 310.000000,-17.324219 308.714844,-18.000000 308.000000,-18.332031 306.000000,-19.082031 304.000000,-19.597656 302.000000,-19.902344 300.003906,-20.000000 300.000000,-20.003906 299.996094,-20.000000 298.000000,-19.902344 296.000000,-19.597656 294.000000,-19.082031 292.000000,-18.332031 291.285156,-18.000000 290.000000,-17.324219 288.000000,-16.003906 287.996094,-16.000000 286.000000,-14.285156 285.714844,-14.000000 284.000000,-12.003906 283.996094,-12.000000 282.675781,-10.000000 282.000000,-8.714844 281.667969,-8.000000 280.917969,-6.000000 280.402344,-4.000000 280.097656,-2.000000 280.000000,-0.003906 279.996094,0.000000 280.000000,0.003906 280.097656,2.000000 280.402344,4.000000 280.917969,6.000000 281.667969,8.000000" stroke="black" fill="none" /><polygon points="134.816406,268.000000 136.000000,267.402344 138.000000,266.378906 138.722656,266.000000 140.000000,265.332031 142.000000,264.261719 142.488281,264.000000 144.000000,263.183594 146.000000,262.074219 146.136719,262.000000 148.000000,260.949219 149.667969,260.000000 150.000000,259.808594 152.000000,258.644531 153.089844,258.000000 154.000000,257.457031 156.000000,256.246094 156.410156,256.000000 158.000000,255.019531 159.636719,254.000000 160.000000,253.769531 162.000000,252.496094 162.777344,252.000000 164.000000,251.207031 165.832031,250.000000 166.000000,249.886719 168.000000,248.550781 168.808594,248.000000 170.000000,247.183594 171.707031,246.000000 172.000000,245.792969 173.003906,244.000000 172.000000,242.652344 171.519531,242.000000 170.050781,240.000000 170.000000,239.925781 168.605469,238.000000 168.000000,237.152344 167.183594,236.000000 166.000000,234.324219 165.769531,234.000000 164.378906,232.000000 164.000000,231.449219 163.003906,230.000000 162.000000,228.519531 161.652344,228.000000 160.308594,226.000000 160.000000,225.527344 158.988281,224.000000 158.000000,222.488281 157.683594,222.000000 156.394531,220.000000 156.000000,219.378906 155.121094,218.000000 154.000000,216.214844 153.863281,216.000000 152.628906,214.000000 152.000000,212.980469 151.402344,212.000000 150.191406,210.000000 150.000000,209.675781 149.003906,208.000000 148.000000,206.300781 147.824219,206.000000 146.660156,204.000000 146.000000,202.847656 145.511719,202.000000 144.378906,200.000000 144.000000,199.316406 143.261719,198.000000 142.160156,196.000000 142.000000,195.707031 141.074219,194.000000 140.000000,192.003906 139.996094,192.000000 138.941406,190.000000 138.000000,188.199219 137.894531,188.000000 136.863281,186.000000 136.000000,184.300781 135.847656,184.000000 134.839844,182.000000 134.000000,180.300781 133.855469,180.000000 132.878906,178.000000 132.000000,176.183594 131.910156,176.000000 130.964844,174.000000 130.027344,172.000000 130.000000,171.941406 129.105469,170.000000 128.191406,168.000000 128.000000,167.574219 127.292969,166.000000 126.410156,164.000000 126.000000,163.058594 125.542969,162.000000 124.683594,160.000000 124.000000,158.394531 123.832031,158.000000 123.003906,156.000000 122.183594,154.000000 122.000000,153.558594 121.371094,152.000000 120.574219,150.000000 120.000000,148.542969 119.792969,148.000000 119.019531,146.000000 118.253906,144.000000 118.000000,143.316406 117.511719,142.000000 116.769531,140.000000 116.050781,138.000000 116.000000,137.871094 115.332031,136.000000 114.628906,134.000000 114.000000,132.167969 113.941406,132.000000 113.261719,130.000000 112.597656,128.000000 112.000000,126.175781 111.941406,126.000000 111.300781,124.000000 110.667969,122.000000 110.042969,120.000000 110.000000,119.847656 109.433594,118.000000 108.839844,116.000000 108.253906,114.000000 108.000000,113.136719 107.675781,112.000000 107.105469,110.000000 106.550781,108.000000 106.011719,106.000000 106.000000,105.964844 105.480469,104.000000 104.957031,102.000000 104.441406,100.000000 104.000000,98.222656 103.941406,98.000000 103.457031,96.000000 102.972656,94.000000 102.511719,92.000000 102.050781,90.000000 102.000000,89.777344 101.605469,88.000000 101.167969,86.000000 100.738281,84.000000 100.324219,82.000000 100.000000,80.402344 99.917969,80.000000 99.527344,78.000000 99.144531,76.000000 98.769531,74.000000 98.402344,72.000000 98.050781,70.000000 98.000000,69.714844 97.707031,68.000000 97.371094,66.000000 97.050781,64.000000 96.738281,62.000000 96.433594,60.000000 96.144531,58.000000 96.000000,56.988281 95.863281,56.000000 95.589844,54.000000 95.324219,52.000000 95.074219,50.000000 94.832031,48.000000 94.597656,46.000000 94.378906,44.000000 94.167969,42.000000 94.000000,40.347656 93.964844,40.000000 93.777344,38.000000 93.589844,36.000000 93.417969,34.000000 93.253906,32.000000 93.105469,30.000000 92.964844,28.000000 92.832031,26.000000 92.707031,24.000000 92.589844,22.000000 92.488281,20.000000 92.394531,18.000000 92.316406,16.000000 92.238281,14.000000 92.175781,12.000000 92.121094,10.000000 92.082031,8.000000 92.042969,6.000000 92.019531,4.000000 92.003906,2.000000 92.000000,0.003906 91.996094,0.000000 92.000000,-0.003906 92.003906,-2.000000 92.019531,-4.000000 92.042969,-6.000000 92.082031,-8.000000 92.121094,-10.000000 92.175781,-12.000000 92.238281,-14.000000 92.316406,-16.000000 92.394531,-18.000000 92.488281,-20.000000 92.589844,-22.000000 92.707031,-24.000000 92.832031,-26.000000 92.964844,-28.000000 93.105469,-30.000000 93.253906,-32.000000 93.417969,-34.000000 93.589844,-36.000000 93.777344,-38.000000 93.964844,-40.000000 94.000000,-40.347656 94.167969,-42.000000 94.378906,-44.000000 94.597656,-46.000000 94.832031,-48.000000 95.074219,-50.000000 95.324219,-52.000000 95.589844,-54.000000 95.863281,-56.000000 96.000000,-56.988281 96.144531,-58.000000 96.433594,-60.000000 96.738281,-62.000000 97.050781,-64.000000 97.371094,-66.000000 97.707031,-68.000000 98.000000,-69.714844 98.050781,-70.000000 98.402344,-72.000000 98.769531,-74.000000 99.144531,-76.000000 99.527344,-78.000000 99.917969,-80.000000 100.000000,-80.402344 100.324219,-82.000000 100.738281,-84.000000 101.167969,-86.000000 101.605469,-88.000000 102.000000,-89.777344 102.050781,-90.000000 102.511719,-92.000000 102.972656,-94.000000 103.457031,-96.000000 103.941406,-98.000000 104.000000,-98.222656 104.441406,-100.000000 104.957031,-102.000000 105.480469,-104.000000 106.000000,-105.964844 106.011719,-106.000000 106.550781,-108.000000 107.105469,-110.000000 107.675781,-112.000000 108.000000,-113.136719 108.253906,-114.000000 108.839844,-116.000000 109.433594,-118.000000 110.000000,-119.847656 110.042969,-120.000000 110.667969,-122.000000 111.300781,-124.000000 111.941406,-126.000000 112.000000,-126.175781 112.597656,-128.000000 113.261719,-130.000000 113.941406,-132.000000 114.000000,-132.167969 114.628906,-134.000000 115.332031,-136.000000 116.000000,-137.871094 116.050781,-138.000000 116.769531,-140.000000 117.511719,-142.000000 118.000000,-143.316406 118.253906,-144.000000 119.019531,-146.000000 119.792969,-148.000000 120.000000,-148.542969 120.574219,-150.000000 121.371094,-152.000000 122.000000,-153.558594 122.183594,-154.000000 123.003906,-156.000000 123.832031,-158.000000 124.000000,-158.394531 124.683594,-160.000000 125.542969,-162.000000 126.000000,-163.058594 126.410156,-164.000000 127.292969,-166.000000 128.000000,-167.574219 128.191406,-168.000000 129.105469,-170.000000 130.000000,-171.941406 130.027344,-172.000000 130.964844,-174.000000 131.910156,-176.000000 132.000000,-176.183594 132.878906,-178.000000 133.855469,-180.000000 134.000000,-180.300781 134.839844,-182.000000 135.847656,-184.000000 136.000000,-184.300781 136.863281,-186.000000 137.894531,-188.000000 138.000000,-188.199219 138.941406,-190.000000 139.996094,-192.000000 140.000000,-192.003906 141.074219,-194.000000 142.000000,-195.707031 142.160156,-196.000000 143.261719,-198.000000 144.000000,-199.316406 144.378906,-200.000000 145.511719,-202.000000 146.000000,-202.847656 146.660156,-204.000000 147.824219,-206.000000 148.000000,-206.300781 149.003906,-208.000000 150.000000,-209.675781 150.191406,-210.000000 151.402344,-212.000000 152.000000,-212.980469 152.628906,-214.000000 153.863281,-216.000000 154.000000,-216.214844 155.121094,-218.000000 156.000000,-219.378906 156.394531,-220.000000 157.683594,-222.000000 158.000000,-222.488281 158.988281,-224.000000 160.000000,-225.527344 160.308594,-226.000000 161.652344,-228.000000 162.000000,-228.519531 163.003906,-230.000000 164.000000,-231.449219 164.378906,-232.000000 165.769531,-234.000000 166.000000,-234.324219 167.183594,-236.000000 168.000000,-237.152344 168.605469,-238.000000 170.000000,-239.925781 170.050781,-240.000000 171.519531,-242.000000 172.000000,-242.652344 173.003906,-244.000000 172.000000,-245.792969 171.707031,-246.000000 170.000000,-247.183594 168.808594,-248.000000 168.000000,-248.550781 166.000000,-249.886719 165.832031,-250.000000 164.000000,-251.207031 162.777344,-252.000000 162.000000,-252.496094 160.000000,-253.769531 159.636719,-254.000000 158.000000,-255.019531 156.410156,-256.000000 156.000000,-256.246094 154.000000,-257.457031 153.089844,-258.000000 152.000000,-258.644531 150.000000,-259.808594 149.667969,-260.000000 148.000000,-260.949219 146.136719,-262.000000 146.000000,-262.074219 144.000000,-263.183594 142.488281,-264.000000 142.000000,-264.261719 140.000000,-265.332031 138.722656,-266.000000 138.000000,-266.378906 136.000000,-267.402344 134.816406,-268.000000 134.000000,-268.410156 132.000000,-269.402344 130.769531,-270.000000 130.000000,-270.371094 128.000000,-271.324219 126.550781,-272.000000 126.000000,-272.253906 124.000000,-273.175781 122.160156,-274.000000 122.000000,-274.074219 120.000000,-274.957031 118.000000,-275.816406 117.574219,-276.000000 116.000000,-276.667969 114.000000,-277.496094 112.761719,-278.000000 112.000000,-278.308594 110.000000,-279.105469 108.000000,-279.886719 107.707031,-280.000000 106.000000,-280.652344 104.000000,-281.394531 102.355469,-282.000000 102.000000,-282.128906 100.000000,-282.839844 98.000000,-283.542969 96.667969,-284.000000 96.000000,-284.222656 94.000000,-284.894531 92.000000,-285.542969 90.574219,-286.000000 90.000000,-286.183594 88.000000,-286.800781 86.000000,-287.410156 84.000000,-287.996094 83.996094,-288.000000 82.000000,-288.574219 80.000000,-289.136719 78.000000,-289.683594 76.808594,-290.000000 76.000000,-290.214844 74.000000,-290.730469 72.000000,-291.230469 70.000000,-291.722656 68.816406,-292.000000 68.000000,-292.191406 66.000000,-292.652344 64.000000,-293.097656 62.000000,-293.519531 60.000000,-293.941406 59.699219,-294.000000 58.000000,-294.339844 56.000000,-294.730469 54.000000,-295.097656 52.000000,-295.457031 50.000000,-295.800781 48.824219,-296.000000 48.000000,-296.136719 46.000000,-296.449219 44.000000,-296.753906 42.000000,-297.042969 40.000000,-297.324219 38.000000,-297.582031 36.000000,-297.832031 34.582031,-298.000000 34.000000,-298.066406 32.000000,-298.285156 30.000000,-298.496094 28.000000,-298.691406 26.000000,-298.871094 24.000000,-299.035156 22.000000,-299.191406 20.000000,-299.332031 18.000000,-299.457031 16.000000,-299.574219 14.000000,-299.675781 12.000000,-299.761719 10.000000,-299.832031 8.000000,-299.894531 6.000000,-299.941406 4.000000,-299.972656 2.000000,-299.996094 0.003906,-300.000000 0.000000,-300.003906 -0.003906,-300.000000 -2.000000,-299.996094 -4.000000,-299.972656 -6.000000,-299.941406 -8.000000,-299.894531 -10.000000,-299.832031 -12.000000,-299.761719 -14.000000,-299.675781 -16.000000,-299.574219 -18.000000,-299.457031 -20.000000,-299.332031 -22.000000,-299.191406 -24.000000,-299.035156 -26.000000,-298.871094 -28.000000,-298.691406 -30.000000,-298.496094 -32.000000,-298.285156 -34.000000,-298.066406 -34.582031,-298.000000 -36.000000,-297.832031 -38.000000,-297.582031 -40.000000,-297.324219 -42.000000,-297.042969 -44.000000,-296.753906 -46.000000,-296.449219 -48.000000,-296.136719 -48.824219,-296.000000 -50.000000,-295.800781 -52.000000,-295.457031 -54.000000,-295.097656 -56.000000,-294.730469 -58.000000,-294.339844 -59.699219,-294.000000 -60.000000,-293.941406 -62.000000,-293.519531 -64.000000,-293.097656 -66.000000,-292.652344 -68.000000,-292.191406 -68.816406,-292.000000 -70.000000,-291.722656 -72.000000,-291.230469 -74.000000,-290.730469 -76.000000,-290.214844 -76.808594,-290.000000 -78.000000,-289.683594 -80.000000,-289.136719 -82.000000,-288.574219 -84.000000,-288.003906 -84.003906,-288.000000 -86.000000,-287.410156 -88.000000,-286.800781 -90.000000,-286.183594 -90.574219,-286.000000 -92.000000,-285.542969 -94.000000,-284.894531 -96.000000,-284.222656 -96.667969,-284.000000 -98.000000,-283.542969 -100.000000,-282.839844 -102.000000,-282.128906 -102.355469,-282.000000 -104.000000,-281.394531 -106.000000,-280.652344 -107.707031,-280.000000 -108.000000,-279.886719 -110.000000,-279.105469 -112.000000,-278.308594 -112.761719,-278.000000 -114.000000,-277.496094 -116.000000,-276.667969 -117.574219,-276.000000 -118.000000,-275.816406 -120.000000,-274.957031 -122.000000,-274.074219 -122.160156,-274.000000 -124.000000,-273.175781 -126.000000,-272.253906 -126.550781,-272.000000 -128.000000,-271.324219 -130.000000,-270.371094 -130.769531,-270.000000 -132.000000,-269.402344 -134.000000,-268.410156 -134.816406,-268.000000 -136.000000,-267.402344 -138.000000,-266.378906 -138.722656,-266.000000 -140.000000,-265.332031 -142.000000,-264.261719 -142.488281,-264.000000 -144.000000,-263.183594 -146.000000,-262.074219 -146.136719,-262.000000 -148.000000,-260.949219 -149.667969,-260.000000 -150.000000,-259.808594 -152.000000,-258.644531 -153.089844,-258.000000 -154.000000,-257.457031 -156.000000,-256.246094 -156.410156,-256.000000 -158.000000,-255.019531 -159.636719,-254.000000 -160.000000,-253.769531 -162.000000,-252.496094 -162.777344,-252.000000 -164.000000,-251.207031 -165.832031,-250.000000 -166.000000,-249.886719 -168.000000,-248.550781 -168.808594,-248.000000 -170.000000,-247.183594 -171.707031,-246.000000 -172.000000,-245.792969 -174.000000,-244.386719 -174.542969,-244.000000 -176.000000,-242.949219 -177.300781,-242.000000 -178.000000,-241.488281 -180.000000,-240.003906 -180.003906,-240.000000 -182.000000,-238.488281 -182.636719,-238.000000 -184.000000,-236.949219 -185.214844,-236.000000 -186.000000,-235.378906 -187.730469,-234.000000 -188.000000,-233.785156 -190.000000,-232.160156 -190.199219,-232.000000 -192.000000,-230.511719 -192.613281,-230.000000 -194.000000,-228.832031 -194.980469,-228.000000 -196.000000,-227.121094 -197.292969,-226.000000 -198.000000,-225.378906 -199.558594,-224.000000 -200.000000,-223.605469 -201.785156,-222.000000 -202.000000,-221.800781 -203.957031,-220.000000 -204.000000,-219.964844 -206.000000,-218.089844 -206.097656,-218.000000 -208.000000,-216.183594 -208.191406,-216.000000 -210.000000,-214.246094 -210.246094,-214.000000 -212.000000,-212.261719 -212.261719,-212.000000 -214.000000,-210.246094 -214.246094,-210.000000 -216.000000,-208.191406 -216.183594,-208.000000 -218.000000,-206.097656 -218.089844,-206.000000 -219.964844,-204.000000 -220.000000,-203.957031 -221.800781,-202.000000 -222.000000,-201.785156 -223.605469,-200.000000 -224.000000,-199.558594 -225.378906,-198.000000 -226.000000,-197.292969 -227.121094,-196.000000 -228.000000,-194.980469 -228.832031,-194.000000 -230.000000,-192.613281 -230.511719,-192.000000 -232.000000,-190.199219 -232.160156,-190.000000 -233.785156,-188.000000 -234.000000,-187.730469 -235.378906,-186.000000 -236.000000,-185.214844 -236.949219,-184.000000 -238.000000,-182.636719 -238.488281,-182.000000 -240.000000,-180.003906 -240.003906,-180.000000 -241.488281,-178.000000 -242.000000,-177.300781 -242.949219,-176.000000 -244.000000,-174.542969 -244.386719,-174.000000 -245.792969,-172.000000 -246.000000,-171.707031 -247.183594,-170.000000 -248.000000,-168.808594 -248.550781,-168.000000 -249.886719,-166.000000 -250.000000,-165.832031 -251.207031,-164.000000 -252.000000,-162.777344 -252.496094,-162.000000 -253.769531,-160.000000 -254.000000,-159.636719 -255.019531,-158.000000 -256.000000,-156.410156 -256.246094,-156.000000 -257.457031,-154.000000 -258.000000,-153.089844 -258.644531,-152.000000 -259.808594,-150.000000 -260.000000,-149.667969 -260.949219,-148.000000 -262.000000,-146.136719 -262.074219,-146.000000 -263.183594,-144.000000 -264.000000,-142.488281 -264.261719,-142.000000 -265.332031,-140.000000 -266.000000,-138.722656 -266.378906,-138.000000 -267.402344,-136.000000 -268.000000,-134.816406 -268.410156,-134.000000 -269.402344,-132.000000 -270.000000,-130.769531 -270.371094,-130.000000 -271.324219,-128.000000 -272.000000,-126.550781 -272.253906,-126.000000 -273.175781,-124.000000 -274.000000,-122.160156 -274.074219,-122.000000 -274.957031,-120.000000 -275.816406,-118.000000 -276.000000,-117.574219 -276.667969,-116.000000 -277.496094,-114.000000 -278.000000,-112.761719 -278.308594,-112.000000 -279.105469,-110.000000 -279.886719,-108.000000 -280.000000,-107.707031 -280.652344,-106.000000 -281.394531,-104.000000 -282.000000,-102.355469 -282.128906,-102.000000 -282.839844,-100.000000 -283.542969,-98.000000 -284.000000,-96.667969 -284.222656,-96.000000 -284.894531,-94.000000 -285.542969,-92.000000 -286.000000,-90.574219 -286.183594,-90.000000 -286.800781,-88.000000 -287.410156,-86.000000 -288.000000,-84.003906 -288.003906,-84.000000 -288.574219,-82.000000 -289.136719,-80.000000 -289.683594,-78.000000 -290.000000,-76.808594 -290.214844,-76.000000 -290.730469,-74.000000 -291.230469,-72.000000 -291.722656,-70.000000 -292.000000,-68.816406 -292.191406,-68.000000 -292.652344,-66.000000 -293.097656,-64.000000 -293.519531,-62.000000 -293.941406,-60.000000 -294.000000,-59.699219 -294.339844,-58.000000 -294.730469,-56.000000 -295.097656,-54.000000 -295.457031,-52.000000 -295.800781,-50.000000 -296.000000,-48.824219 -296.136719,-48.000000 -296.449219,-46.000000 -296.753906,-44.000000 -297.042969,-42.000000 -297.324219,-40.000000 -297.582031,-38.000000 -297.832031,-36.000000 -298.000000,-34.582031 -298.066406,-34.000000 -298.285156,-32.000000 -298.496094,-30.000000 -298.691406,-28.000000 -298.871094,-26.000000 -299.035156,-24.000000 -299.191406,-22.000000 -299.332031,-20.000000 -299.457031,-18.000000 -299.574219,-16.000000 -299.675781,-14.000000 -299.761719,-12.000000 -299.832031,-10.000000 -299.894531,-8.000000 -299.941406,-6.000000 -299.972656,-4.000000 -299.996094,-2.000000 -300.000000,-0.003906 -300.003906,0.000000 -300.000000,0.003906 -299.996094,2.000000 -299.972656,4.000000 -299.941406,6.000000 -299.894531,8.000000 -299.832031,10.000000 -299.761719,12.000000 -299.675781,14.000000 -299.574219,16.000000 -299.457031,18.000000 -299.332031,20.000000 -299.191406,22.000000 -299.035156,24.000000 -298.871094,26.000000 -298.691406,28.000000 -298.496094,30.000000 -298.285156,32.000000 -298.066406,34.000000 -298.000000,34.582031 -297.832031,36.000000 -297.582031,38.000000 -297.324219,40.000000 -297.042969,42.000000 -296.753906,44.000000 -296.449219,46.000000 -296.136719,48.000000 -296.000000,48.824219 -295.800781,50.000000 -295.457031,52.000000 -295.097656,54.000000 -294.730469,56.000000 -294.339844,58.000000 -294.000000,59.699219 -293.941406,60.000000 -293.519531,62.000000 -293.097656,64.000000 -292.652344,66.000000 -292.191406,68.000000 -292.000000,68.816406 -291.722656,70.000000 -291.230469,72.000000 -290.730469,74.000000 -290.214844,76.000000 -290.000000,76.808594 -289.683594,78.000000 -289.136719,80.000000 -288.574219,82.000000 -288.000000,83.996094 -287.996094,84.000000 -287.410156,86.000000 -286.800781,88.000000 -286.183594,90.000000 -286.000000,90.574219 -285.542969,92.000000 -284.894531,94.000000 -284.222656,96.000000 -284.000000,96.667969 -283.542969,98.000000 -282.839844,100.000000 -282.128906,102.000000 -282.000000,102.355469 -281.394531,104.000000 -280.652344,106.000000 -280.000000,107.707031 -279.886719,108.000000 -279.105469,110.000000 -278.308594,112.000000 -278.000000,112.761719 -277.496094,114.000000 -276.667969,116.000000 -276.000000,117.574219 -275.816406,118.000000 -274.957031,120.000000 -274.074219,122.000000 -274.000000,122.160156 -273.175781,124.000000 -272.253906,126.000000 -272.000000,126.550781 -271.324219,128.000000 -270.371094,130.000000 -270.000000,130.769531 -269.402344,132.000000 -268.410156,134.000000 -268.000000,134.816406 -267.402344,136.000000 -266.378906,138.000000 -266.000000,138.722656 -265.332031,140.000000 -264.261719,142.000000 -264.000000,142.488281 -263.183594,144.000000 -262.074219,146.000000 -262.000000,146.136719 -260.949219,148.000000 -260.000000,149.667969 -259.808594,150.000000 -258.644531,152.000000 -258.000000,153.089844 -257.457031,154.000000 -256.246094,156.000000 -256.000000,156.410156 -255.019531,158.000000 -254.000000,159.636719 -253.769531,160.000000 -252.496094,162.000000 -252.000000,162.777344 -251.207031,164.000000 -250.000000,165.832031 -249.886719,166.000000 -248.550781,168.000000 -248.000000,168.808594 -247.183594,170.000000 -246.000000,171.707031 -245.792969,172.000000 -244.386719,174.000000 -244.000000,174.542969 -242.949219,176.000000 -242.000000,177.300781 -241.488281,178.000000 -240.000000,179.996094 -239.996094,180.000000 -238.488281,182.000000 -238.000000,182.636719 -236.949219,184.000000 -236.000000,185.214844 -235.378906,186.000000 -234.000000,187.730469 -233.785156,188.000000 -232.160156,190.000000 -232.000000,190.199219 -230.511719,192.000000 -230.000000,192.613281 -228.832031,194.000000 -228.000000,194.980469 -227.121094,196.000000 -226.000000,197.292969 -225.378906,198.000000 -224.000000,199.558594 -223.605469,200.000000 -222.000000,201.785156 -221.800781,202.000000 -220.000000,203.957031 -219.964844,204.000000 -218.089844,206.000000 -218.000000,206.097656 -216.183594,208.000000 -216.000000,208.191406 -214.246094,210.000000 -214.000000,210.246094 -212.261719,212.000000 -212.000000,212.261719 -210.246094,214.000000 -210.000000,214.246094 -208.191406,216.000000 -208.000000,216.183594 -206.097656,218.000000 -206.000000,218.089844 -204.000000,219.964844 -203.957031,220.000000 -202.000000,221.800781 -201.785156,222.000000 -200.000000,223.605469 -199.558594,224.000000 -198.000000,225.378906 -197.292969,226.000000 -196.000000,227.121094 -194.980469,228.000000 -194.000000,228.832031 -192.613281,230.000000 -192.000000,230.511719 -190.199219,232.000000 -190.000000,232.160156 -188.000000,233.785156 -187.730469,234.000000 -186.000000,235.378906 -185.214844,236.000000 -184.000000,236.949219 -182.636719,238.000000 -182.000000,238.488281 -180.000000,239.996094 -179.996094,240.000000 -178.000000,241.488281 -177.300781,242.000000 -176.000000,242.949219 -174.542969,244.000000 -174.000000,244.386719 -172.000000,245.792969 -171.707031,246.000000 -170.000000,247.183594 -168.808594,248.000000 -168.000000,248.550781 -166.000000,249.886719 -165.832031,250.000000 -164.000000,251.207031 -162.777344,252.000000 -162.000000,252.496094 -160.000000,253.769531 -159.636719,254.000000 -158.000000,255.019531 -156.410156,256.000000 -156.000000,256.246094 -154.000000,257.457031 -153.089844,258.000000 -152.000000,258.644531 -150.000000,259.808594 -149.667969,260.000000 -148.000000,260.949219 -146.136719,262.000000 -146.000000,262.074219 -144.000000,263.183594 -142.488281,264.000000 -142.000000,264.261719 -140.000000,265.332031 -138.722656,266.000000 -138.000000,266.378906 -136.000000,267.402344 -134.816406,268.000000 -134.000000,268.410156 -132.000000,269.402344 -130.769531,270.000000 -130.000000,270.371094 -128.000000,271.324219 -126.550781,272.000000 -126.000000,272.253906 -124.000000,273.175781 -122.160156,274.000000 -122.000000,274.074219 -120.000000,274.957031 -118.000000,275.816406 -117.574219,276.000000 -116.000000,276.667969 -114.000000,277.496094 -112.761719,278.000000 -112.000000,278.308594 -110.000000,279.105469 -108.000000,279.886719 -107.707031,280.000000 -106.000000,280.652344 -104.000000,281.394531 -102.355469,282.000000 -102.000000,282.128906 -100.000000,282.839844 -98.000000,283.542969 -96.667969,284.000000 -96.000000,284.222656 -94.000000,284.894531 -92.000000,285.542969 -90.574219,286.000000 -90.000000,286.183594 -88.000000,286.800781 -86.000000,287.410156 -84.000000,287.996094 -83.996094,288.000000 -82.000000,288.574219 -80.000000,289.136719 -78.000000,289.683594 -76.808594,290.000000 -76.000000,290.214844 -74.000000,290.730469 -72.000000,291.230469 -70.000000,291.722656 -68.816406,292.000000 -68.000000,292.191406 -66.000000,292.652344 -64.000000,293.097656 -62.000000,293.519531 -60.000000,293.941406 -59.699219,294.000000 -58.000000,294.339844 -56.000000,294.730469 -54.000000,295.097656 -52.000000,295.457031 -50.000000,295.800781 -48.824219,296.000000 -48.000000,296.136719 -46.000000,296.449219 -44.000000,296.753906 -42.000000,297.042969 -40.000000,297.324219 -38.000000,297.582031 -36.000000,297.832031 -34.582031,298.000000 -34.000000,298.066406 -32.000000,298.285156 -30.000000,298.496094 -28.000000,298.691406 -26.000000,298.871094 -24.000000,299.035156 -22.000000,299.191406 -20.000000,299.332031 -18.000000,299.457031 -16.000000,299.574219 -14.000000,299.675781 -12.000000,299.761719 -10.000000,299.832031 -8.000000,299.894531 -6.000000,299.941406 -4.000000,299.972656 -2.000000,299.996094 0.000000,299.996094 2.000000,299.996094 4.000000,299.972656 6.000000,299.941406 8.000000,299.894531 10.000000,299.832031 12.000000,299.761719 14.000000,299.675781 16.000000,299.574219 18.000000,299.457031 20.000000,299.332031 22.000000,299.191406 24.000000,299.035156 26.000000,298.871094 28.000000,298.691406 30.000000,298.496094 32.000000,298.285156 34.000000,298.066406 34.582031,298.000000 36.000000,297.832031 38.000000,297.582031 40.000000,297.324219 42.000000,297.042969 44.000000,296.753906 46.000000,296.449219 48.000000,296.136719 48.824219,296.000000 50.000000,295.800781 52.000000,295.457031 54.000000,295.097656 56.000000,294.730469 58.000000,294.339844 59.699219,294.000000 60.000000,293.941406 62.000000,293.519531 64.000000,293.097656 66.000000,292.652344 68.000000,292.191406 68.816406,292.000000 70.000000,291.722656 72.000000,291.230469 74.000000,290.730469 76.000000,290.214844 76.808594,290.000000 78.000000,289.683594 80.000000,289.136719 82.000000,288.574219 83.996094,288.000000 84.000000,287.996094 86.000000,287.410156 88.000000,286.800781 90.000000,286.183594 90.574219,286.000000 92.000000,285.542969 94.000000,284.894531 96.000000,284.222656 96.667969,284.000000 98.000000,283.542969 100.000000,282.839844 102.000000,282.128906 102.355469,282.000000 104.000000,281.394531 106.000000,280.652344 107.707031,280.000000 108.000000,279.886719 110.000000,279.105469 112.000000,278.308594 112.761719,278.000000 114.000000,277.496094 116.000000,276.667969 117.574219,276.000000 118.000000,275.816406 120.000000,274.957031 122.000000,274.074219 122.160156,274.000000 124.000000,273.175781 126.000000,272.253906 126.550781,272.000000 128.000000,271.324219 130.000000,270.371094 130.769531,270.000000 132.000000,269.402344 134.000000,268.410156" stroke="black" fill="none" /><polygon points="318.464145,-25.972364 319.193348,-25.668529 321.099222,-24.745975 322.894611,-23.712936 324.573989,-22.563888 325.071174,-22.193762 326.153931,-21.315402 327.634436,-19.967480 329.009979,-18.514597 330.192173,-17.072762 330.280562,-16.956752 331.451707,-15.299471 332.512368,-13.531704 333.462542,-11.653451 333.970775,-10.465733 334.285659,-9.648141 334.976193,-7.510247 335.274503,-6.333578 335.512047,-5.217675 335.843503,-2.936150 335.865601,-2.742801 335.998183,-0.046956 335.998183,0.046956 335.865601,2.742801 335.843503,2.936150 335.512047,5.217675 335.274503,6.333578 334.976193,7.510247 334.285659,9.648141 333.970775,10.465733 333.462542,11.653451 332.512368,13.531704 331.451707,15.299471 330.280562,16.956752 330.192173,17.072762 329.009979,18.514597 327.634436,19.967480 326.153931,21.315402 325.071174,22.193762 324.573989,22.563888 322.894611,23.712936 321.099222,24.745975 319.193348,25.668529 318.464145,25.972364 317.154892,26.458499 314.983853,27.115888 314.331989,27.276092 312.652611,27.613072 310.934562,27.845092 310.128019,27.916907 307.951456,27.999771 307.382456,27.999771 305.123028,27.999771 304.554028,27.999771 302.294601,27.999771 301.725601,27.999771 299.466174,27.999771 298.897174,27.999771 296.637747,27.999771 296.068747,27.999771 293.809320,27.999771 293.240320,27.999771 290.980893,27.999771 290.411893,27.999771 288.152466,27.999771 287.583466,27.999771 285.324039,27.999771 284.755039,27.999771 282.495611,27.999771 281.926611,27.999771 279.667184,27.999771 279.098184,27.999771 276.838757,27.999771 276.269757,27.999771 274.010330,27.999771 273.441330,27.999771 271.181903,27.999771 270.612903,27.999771 268.353476,27.999771 267.784476,27.999771 265.525049,27.999771 264.956049,27.999771 262.696622,27.999771 262.127622,27.999771 259.868194,27.999771 259.299194,27.999771 257.039767,27.999771 256.470767,27.999771 254.211340,27.999771 253.642340,27.999771 251.382913,27.999771 250.813913,27.999771 248.554486,27.999771 247.985486,27.999771 245.726059,27.999771 245.157059,27.999771 242.897632,27.999771 242.328632,27.999771 240.069205,27.999771 239.500205,27.999771 237.240777,27.999771 236.671777,27.999771 234.412350,27.999771 233.843350,27.999771 231.583923,27.999771 231.014923,27.999771 228.755496,27.999771 228.186496,27.999771 225.927069,27.999771 225.358069,27.999771 223.098642,27.999771 222.529642,27.999771 220.270215,27.999771 219.701215,27.999771 217.441788,27.999771 216.872788,27.999771 214.613360,27.999771 214.044360,27.999771 211.784933,27.999771 211.215933,27.999771 208.956506,27.999771 208.387506,27.999771 206.128079,27.999771 205.559079,27.999771 203.299652,27.999771 202.730652,27.999771 200.471225,27.999771 199.902225,27.999771 197.642798,27.999771 197.073798,27.999771 194.814371,27.999771 194.245371,27.999771 191.985943,27.999771 191.416943,27.999771 189.157516,27.999771 188.588516,27.999771 186.329089,27.999771 185.760089,27.999771 183.500662,27.999771 182.931662,27.999771 180.672235,27.999771 180.103235,27.999771 177.843808,27.999771 177.274808,27.999771 175.015381,27.999771 174.446381,27.999771 172.186954,27.999771 171.617954,27.999771 169.358526,27.999771 168.789526,27.999771 166.530099,27.999771 165.961099,27.999771 163.701672,27.999771 163.132672,27.999771 160.873245,27.999771 160.304245,27.999771 158.044818,27.999771 157.475818,27.999771 155.216391,27.999771 154.647391,27.999771 152.387964,27.999771 151.818964,27.999771 149.559537,27.999771 148.990537,27.999771 146.731109,27.999771 146.162109,27.999771 143.902682,27.999771 143.333682,27.999771 141.074255,27.999771 140.505255,27.999771 138.245828,27.999771 137.676828,27.999771 135.417401,27.999771 134.848401,27.999771 132.588974,27.999771 132.019974,27.999771 129.760547,27.999771 129.191547,27.999771 126.932120,27.999771 126.363120,27.999771 124.103692,27.999771 123.534692,27.999771 121.275265,27.999771 120.706265,27.999771 118.446838,27.999771 117.877838,27.999771 115.618411,27.999771 115.049411,27.999771 112.789984,27.999771 112.220984,27.999771 109.961557,27.999771 109.392557,27.999771 109.066625,28.894703 109.199207,30.634849 109.271023,31.518732 109.453324,33.717392 109.486469,34.131713 109.724013,36.722596 109.735062,36.827557 109.972605,39.302431 110.044421,39.965344 110.243295,41.860169 110.381401,43.130752 110.525032,44.406858 110.746003,46.323781 110.817819,46.942499 111.132702,49.456043 112.955712,50.461460 114.662712,50.240489 116.192935,50.052664 117.187304,49.936654 119.385964,49.688062 119.728469,49.649392 122.291731,49.384227 122.545848,49.356606 124.871566,49.135635 125.667061,49.063819 127.473498,48.909140 128.755129,48.804179 130.097527,48.704742 131.804527,48.583208 132.743653,48.522441 134.820780,48.395382 135.411877,48.362237 137.809411,48.235179 138.102197,48.224130 140.759372,48.113645 140.814614,48.108120 143.554653,48.019732 143.687236,48.014208 146.316789,47.953441 146.581954,47.947916 149.101022,47.909247 149.449051,47.909247 151.918401,47.898198 152.288527,47.898198 154.757876,47.909247 155.105905,47.909247 157.624973,47.947916 157.890138,47.953441 160.519692,48.014208 160.652274,48.019732 163.392313,48.108120 163.447556,48.113645 166.104730,48.224130 166.397517,48.235179 168.795051,48.362237 169.386148,48.395382 171.463274,48.522441 172.402400,48.583208 174.109400,48.704742 175.451798,48.804179 176.733429,48.909140 178.539866,49.063819 179.335361,49.135635 181.661080,49.356606 181.915196,49.384227 184.478458,49.649392 184.820963,49.688062 187.019623,49.936654 188.013992,50.052664 189.544215,50.240489 191.251215,50.461460 192.046710,50.566421 194.527108,50.914450 194.532633,50.914450 196.996458,51.273528 197.852720,51.406111 199.443710,51.654703 201.217001,51.941965 201.874390,52.052450 204.282972,52.472295 204.636526,52.533062 206.680506,52.903188 208.100244,53.168353 209.061467,53.350654 211.420331,53.820217 211.619205,53.858887 213.768147,54.300829 215.193409,54.604664 216.093865,54.803538 218.408535,55.317295 218.828380,55.411208 220.706632,55.847625 222.524118,56.278518 222.988156,56.394528 225.258632,56.952479 226.286147,57.212120 227.512535,57.527004 229.749865,58.118101 230.119991,58.217538 231.970622,58.725771 234.031176,59.300295 234.180331,59.344489 236.378991,59.974256 238.025224,60.465916 238.555554,60.626120 240.726593,61.283508 242.102137,61.714402 242.881059,61.957470 245.018952,62.648004 246.278486,63.062324 247.145797,63.349586 249.261593,64.062217 250.554272,64.509683 251.360816,64.791421 253.448991,65.531673 254.951593,66.078576 255.520593,66.288499 257.586670,67.050848 259.470447,67.769003 259.636175,67.829770 261.674631,68.619741 263.696515,69.426285 264.127408,69.597537 265.712874,70.238353 267.712660,71.066994 268.944573,71.586275 269.701398,71.906683 271.679087,72.757421 273.645728,73.619207 273.932990,73.746265 275.601320,74.492042 277.540340,75.381450 279.131330,76.116178 279.473835,76.276382 281.390757,77.187887 283.302155,78.104916 284.567213,78.723634 285.196980,79.038518 287.086281,79.977644 288.959009,80.933343 290.290359,81.618353 290.826213,81.894566 292.676844,82.872362 294.521951,83.855683 296.350485,84.855576 296.356009,84.855576 298.173495,85.860993 299.985456,86.877459 301.786368,87.904974 302.852553,88.523692 303.576232,88.943537 305.355048,89.993149 307.122815,91.053809 308.885057,92.119993 309.918096,92.760809 310.630727,93.202750 312.370873,94.291032 314.099970,95.390362 315.812494,96.506265 317.525018,97.622168 317.779135,97.793420 319.220970,98.754644 320.911397,99.892644 322.585251,101.047216 324.253581,102.207313 325.910863,103.378459 326.883135,104.068993 327.562620,104.555129 329.197805,105.748372 330.827465,106.947139 332.446076,108.156954 334.059164,109.372294 335.655678,110.604206 337.246668,111.841643 338.368096,112.725527 338.826610,113.090129 340.395503,114.349663 341.958872,115.614721 343.511193,116.890828 345.052464,118.177983 346.582688,119.476187 348.107387,120.779915 349.621037,122.094692 351.123639,123.420517 352.620717,124.751866 354.106746,126.094264 355.581726,127.447711 357.045658,128.812206 358.504066,130.182225 359.951425,131.563293 361.387736,132.955410 362.818522,134.353051 364.232736,135.767264 365.646949,137.181478 367.044590,138.612264 368.436707,140.048575 369.817775,141.495934 371.187794,142.954342 372.552289,144.418274 373.905736,145.893254 375.248134,147.379283 376.579483,148.876361 377.905308,150.378963 379.220085,151.892613 380.523813,153.417312 381.822017,154.947536 383.109172,156.488807 384.385279,158.041128 385.650337,159.604497 386.909871,161.173390 387.274473,161.631904 388.158357,162.753332 389.395794,164.344322 390.627706,165.940836 391.843046,167.553924 393.052861,169.172535 394.251628,170.802195 395.444871,172.437380 395.931007,173.116865 396.621541,174.089137 397.792687,175.746419 398.952784,177.414749 400.107356,179.088603 401.245356,180.779030 402.206580,182.220865 402.377832,182.474982 403.493735,184.187506 404.609638,185.900030 405.708968,187.629127 406.797250,189.369273 407.239191,190.081904 407.880007,191.114943 408.946191,192.877185 410.006851,194.644952 411.056463,196.423768 411.476308,197.147447 412.095026,198.213632 413.122541,200.014544 414.139007,201.826505 415.144424,203.643991 415.144424,203.649515 416.144317,205.478049 417.127638,207.323156 418.105434,209.173787 418.381647,209.709641 419.066657,211.040991 420.022356,212.913719 420.961482,214.803020 421.276366,215.432787 421.895084,216.697845 422.812113,218.609243 423.723618,220.526165 423.883822,220.868670 424.618550,222.459660 425.507958,224.398680 426.253735,226.067010 426.380793,226.354272 427.242579,228.320913 428.093317,230.298602 428.413725,231.055427 428.933006,232.287340 429.761647,234.287126 430.402463,235.872592 430.573715,236.303485 431.380259,238.325369 432.170230,240.363825 432.230997,240.529553 432.949152,242.413330 433.711501,244.479407 433.921424,245.048407 434.468327,246.551009 435.208579,248.639184 435.490317,249.445728 435.937783,250.738407 436.650414,252.854203 436.937676,253.721514 437.351996,254.981048 438.042530,257.118941 438.285598,257.897863 438.716492,259.273407 439.373880,261.444446 439.534084,261.974776 440.025744,263.621009 440.655511,265.819669 440.699705,265.968824 441.274229,268.029378 441.782462,269.880009 441.881899,270.250135 442.472996,272.487465 442.787880,273.713853 443.047521,274.741368 443.605472,277.011844 443.721482,277.475882 444.152375,279.293368 444.588792,281.171620 444.682705,281.591465 445.196462,283.906135 445.395336,284.806591 445.699171,286.231853 446.141113,288.380795 446.179783,288.579669 446.649346,290.938533 446.831647,291.899756 447.096812,293.319494 447.466938,295.363474 447.527705,295.717028 447.947550,298.125610 448.058035,298.782999 448.345297,300.556290 448.593889,302.147280 448.726472,303.003542 449.085550,305.467367 449.085550,305.472892 449.433579,307.953290 449.538540,308.748785 449.759511,310.455785 449.947336,311.986008 450.063346,312.980377 450.311938,315.179037 450.350608,315.521542 450.615773,318.084804 450.643394,318.338920 450.864365,320.664639 450.936181,321.460134 451.090860,323.266571 451.195821,324.548202 451.295258,325.890600 451.416792,327.597600 451.477559,328.536726 451.604618,330.613852 451.637763,331.204949 451.764821,333.602483 451.775870,333.895270 451.886355,336.552444 451.891880,336.607687 451.980268,339.347726 451.985792,339.480308 452.046559,342.109862 452.052084,342.375027 452.090753,344.894095 452.090753,345.242124 452.101802,347.711473 452.101802,348.081599 452.090753,350.550949 452.090753,350.898978 452.052084,353.418046 452.046559,353.683211 451.985792,356.312764 451.980268,356.445347 451.891880,359.185386 451.886355,359.240628 451.775870,361.897803 451.764821,362.190589 451.637763,364.588123 451.604618,365.179220 451.477559,367.256347 451.416792,368.195473 451.295258,369.902473 451.195821,371.244871 451.090860,372.526502 450.936181,374.332939 450.864365,375.128434 450.643394,377.454152 450.615773,377.708269 450.350608,380.271531 450.311938,380.614036 450.063346,382.812696 449.947336,383.807065 449.759511,385.337288 449.538540,387.044288 450.543957,388.867298 453.057501,389.182181 453.676219,389.253997 455.593142,389.474968 456.869248,389.618599 458.139831,389.756705 460.034656,389.955579 460.697569,390.027395 463.172443,390.264938 463.277404,390.275987 465.868287,390.513531 466.282608,390.546676 468.481268,390.728977 469.365151,390.800793 471.105297,390.933375 472.000229,390.607443 472.000229,390.038443 472.000229,387.779016 472.000229,387.210016 472.000229,384.950589 472.000229,384.381589 472.000229,382.122162 472.000229,381.553162 472.000229,379.293735 472.000229,378.724735 472.000229,376.465308 472.000229,375.896308 472.000229,373.636880 472.000229,373.067880 472.000229,370.808453 472.000229,370.239453 472.000229,367.980026 472.000229,367.411026 472.000229,365.151599 472.000229,364.582599 472.000229,362.323172 472.000229,361.754172 472.000229,359.494745 472.000229,358.925745 472.000229,356.666318 472.000229,356.097318 472.000229,353.837891 472.000229,353.268891 472.000229,351.009463 472.000229,350.440463 472.000229,348.181036 472.000229,347.612036 472.000229,345.352609 472.000229,344.783609 472.000229,342.524182 472.000229,341.955182 472.000229,339.695755 472.000229,339.126755 472.000229,336.867328 472.000229,336.298328 472.000229,334.038901 472.000229,333.469901 472.000229,331.210474 472.000229,330.641474 472.000229,328.382046 472.000229,327.813046 472.000229,325.553619 472.000229,324.984619 472.000229,322.725192 472.000229,322.156192 472.000229,319.896765 472.000229,319.327765 472.000229,317.068338 472.000229,316.499338 472.000229,314.239911 472.000229,313.670911 472.000229,311.411484 472.000229,310.842484 472.000229,308.583057 472.000229,308.014057 472.000229,305.754629 472.000229,305.185629 472.000229,302.926202 472.000229,302.357202 472.000229,300.097775 472.000229,299.528775 472.000229,297.269348 472.000229,296.700348 472.000229,294.440921 472.000229,293.871921 472.000229,291.612494 472.000229,291.043494 472.000229,288.784067 472.000229,288.215067 472.000229,285.955640 472.000229,285.386640 472.000229,283.127212 472.000229,282.558212 472.000229,280.298785 472.000229,279.729785 472.000229,277.470358 472.000229,276.901358 472.000229,274.641931 472.000229,274.072931 472.000229,271.813504 472.000229,271.244504 472.000229,268.985077 472.000229,268.416077 472.000229,266.156650 472.000229,265.587650 472.000229,263.328223 472.000229,262.759223 472.000229,260.499795 472.000229,259.930795 472.000229,257.671368 472.000229,257.102368 472.000229,254.842941 472.000229,254.273941 472.000229,252.014514 472.000229,251.445514 472.000229,249.186087 472.000229,248.617087 472.000229,246.357660 472.000229,245.788660 472.000229,243.529233 472.000229,242.960233 472.000229,240.700806 472.000229,240.131806 472.000229,237.872378 472.000229,237.303378 472.000229,235.043951 472.000229,234.474951 472.000229,232.215524 472.000229,231.646524 472.000229,229.387097 472.000229,228.818097 472.000229,226.558670 472.000229,225.989670 472.000229,223.730243 472.000229,223.161243 472.000229,220.901816 472.000229,220.332816 472.000229,218.073389 472.000229,217.504389 472.000229,215.244961 472.000229,214.675961 472.000229,212.416534 472.000229,211.847534 472.000229,209.588107 472.000229,209.019107 472.000229,206.759680 472.000229,206.190680 472.000229,203.931253 472.000229,203.362253 472.000229,201.102826 472.000229,200.533826 472.000229,198.274399 472.000229,197.705399 472.000229,195.445972 472.000229,194.876972 472.000229,192.617544 472.000229,192.048544 472.083093,189.871981 472.154908,189.065438 472.386928,187.347389 472.723908,185.668011 472.884112,185.016147 473.541501,182.845108 474.027636,181.535855 474.331471,180.806652 475.254025,178.900778 476.287064,177.105389 477.436112,175.426011 477.806238,174.928826 478.684598,173.846069 480.032520,172.365564 481.485403,170.990021 482.927238,169.807827 483.043248,169.719438 484.700529,168.548293 486.468296,167.487632 488.346549,166.537458 489.534267,166.029225 490.351859,165.714341 492.489753,165.023807 493.666422,164.725497 494.782325,164.487953 497.063850,164.156497 497.257199,164.134399 499.953044,164.001817 500.046956,164.001817 502.742801,164.134399 502.936150,164.156497 505.217675,164.487953 506.333578,164.725497 507.510247,165.023807 509.648141,165.714341 510.465733,166.029225 511.653451,166.537458 513.531704,167.487632 515.299471,168.548293 516.956752,169.719438 517.072762,169.807827 518.514597,170.990021 519.967480,172.365564 521.315402,173.846069 522.193762,174.928826 522.563888,175.426011 523.712936,177.105389 524.745975,178.900778 525.668529,180.806652 525.972364,181.535855 526.458499,182.845108 527.115888,185.016147 527.276092,185.668011 527.613072,187.347389 527.845092,189.065438 527.916907,189.871981 527.999771,192.048544 527.999771,192.617544 527.999771,194.876972 527.999771,195.445972 527.999771,197.705399 527.999771,198.274399 527.999771,200.533826 527.999771,201.102826 527.999771,203.362253 527.999771,203.931253 527.999771,206.190680 527.999771,206.759680 527.999771,209.019107 527.999771,209.588107 527.999771,211.847534 527.999771,212.416534 527.999771,214.675961 527.999771,215.244961 527.999771,217.504389 527.999771,218.073389 527.999771,220.332816 527.999771,220.901816 527.999771,223.161243 527.999771,223.730243 527.999771,225.989670 527.999771,226.558670 527.999771,228.818097 527.999771,229.387097 527.999771,231.646524 527.999771,232.215524 527.999771,234.474951 527.999771,235.043951 527.999771,237.303378 527.999771,237.872378 527.999771,240.131806 527.999771,240.700806 527.999771,242.960233 527.999771,243.529233 527.999771,245.788660 527.999771,246.357660 527.999771,248.617087 527.999771,249.186087 527.999771,251.445514 527.999771,252.014514 527.999771,254.273941 527.999771,254.842941 527.999771,257.102368 527.999771,257.671368 527.999771,259.930795 527.999771,260.499795 527.999771,262.759223 527.999771,263.328223 527.999771,265.587650 527.999771,266.156650 527.999771,268.416077 527.999771,268.985077 527.999771,271.244504 527.999771,271.813504 527.999771,274.072931 527.999771,274.641931 527.999771,276.901358 527.999771,277.470358 527.999771,279.729785 527.999771,280.298785 527.999771,282.558212 527.999771,283.127212 527.999771,285.386640 527.999771,285.955640 527.999771,288.215067 527.999771,288.784067 527.999771,291.043494 527.999771,291.612494 527.999771,293.871921 527.999771,294.440921 527.999771,296.700348 527.999771,297.269348 527.999771,299.528775 527.999771,300.097775 527.999771,302.357202 527.999771,302.926202 527.999771,305.185629 527.999771,305.754629 527.999771,308.014057 527.999771,308.583057 527.999771,310.842484 527.999771,311.411484 527.999771,313.670911 527.999771,314.239911 527.999771,316.499338 527.999771,317.068338 527.999771,319.327765 527.999771,319.896765 527.999771,322.156192 527.999771,322.725192 527.999771,324.984619 527.999771,325.553619 527.999771,327.813046 527.999771,328.382046 527.999771,330.641474 527.999771,331.210474 527.999771,333.469901 527.999771,334.038901 527.999771,336.298328 527.999771,336.867328 527.999771,339.126755 527.999771,339.695755 527.999771,341.955182 527.999771,342.524182 527.999771,344.783609 527.999771,345.352609 527.999771,347.612036 527.999771,348.181036 527.999771,350.440463 527.999771,351.009463 527.999771,353.268891 527.999771,353.837891 527.999771,356.097318 527.999771,356.666318 527.999771,358.925745 527.999771,359.494745 527.999771,361.754172 527.999771,362.323172 527.999771,364.582599 527.999771,365.151599 527.999771,367.411026 527.999771,367.980026 527.999771,370.239453 527.999771,370.808453 527.999771,373.067880 527.999771,373.636880 527.999771,375.896308 527.999771,376.465308 527.999771,378.724735 527.999771,379.293735 527.999771,381.553162 527.999771,382.122162 527.999771,384.381589 527.999771,384.950589 527.999771,387.210016 527.999771,387.779016 527.999771,390.038443 527.999771,390.607443 528.894703,390.933375 530.634849,390.800793 531.518732,390.728977 533.717392,390.546676 534.131713,390.513531 536.722596,390.275987 536.827557,390.264938 539.302431,390.027395 539.965344,389.955579 541.860169,389.756705 543.130752,389.618599 544.406858,389.474968 546.323781,389.253997 546.942499,389.182181 549.456043,388.867298 550.461460,387.044288 550.240489,385.337288 550.052664,383.807065 549.936654,382.812696 549.688062,380.614036 549.649392,380.271531 549.384227,377.708269 549.356606,377.454152 549.135635,375.128434 549.063819,374.332939 548.909140,372.526502 548.804179,371.244871 548.704742,369.902473 548.583208,368.195473 548.522441,367.256347 548.395382,365.179220 548.362237,364.588123 548.235179,362.190589 548.224130,361.897803 548.113645,359.240628 548.108120,359.185386 548.019732,356.445347 548.014208,356.312764 547.953441,353.683211 547.947916,353.418046 547.909247,350.898978 547.909247,350.550949 547.898198,348.081599 547.898198,347.711473 547.909247,345.242124 547.909247,344.894095 547.947916,342.375027 547.953441,342.109862 548.014208,339.480308 548.019732,339.347726 548.108120,336.607687 548.113645,336.552444 548.224130,333.895270 548.235179,333.602483 548.362237,331.204949 548.395382,330.613852 548.522441,328.536726 548.583208,327.597600 548.704742,325.890600 548.804179,324.548202 548.909140,323.266571 549.063819,321.460134 549.135635,320.664639 549.356606,318.338920 549.384227,318.084804 549.649392,315.521542 549.688062,315.179037 549.936654,312.980377 550.052664,311.986008 550.240489,310.455785 550.461460,308.748785 550.566421,307.953290 550.914450,305.472892 550.914450,305.467367 551.273528,303.003542 551.406111,302.147280 551.654703,300.556290 551.941965,298.782999 552.052450,298.125610 552.472295,295.717028 552.533062,295.363474 552.903188,293.319494 553.168353,291.899756 553.350654,290.938533 553.820217,288.579669 553.858887,288.380795 554.300829,286.231853 554.604664,284.806591 554.803538,283.906135 555.317295,281.591465 555.411208,281.171620 555.847625,279.293368 556.278518,277.475882 556.394528,277.011844 556.952479,274.741368 557.212120,273.713853 557.527004,272.487465 558.118101,270.250135 558.217538,269.880009 558.725771,268.029378 559.300295,265.968824 559.344489,265.819669 559.974256,263.621009 560.465916,261.974776 560.626120,261.444446 561.283508,259.273407 561.714402,257.897863 561.957470,257.118941 562.648004,254.981048 563.062324,253.721514 563.349586,252.854203 564.062217,250.738407 564.509683,249.445728 564.791421,248.639184 565.531673,246.551009 566.078576,245.048407 566.288499,244.479407 567.050848,242.413330 567.769003,240.529553 567.829770,240.363825 568.619741,238.325369 569.426285,236.303485 569.597537,235.872592 570.238353,234.287126 571.066994,232.287340 571.586275,231.055427 571.906683,230.298602 572.757421,228.320913 573.619207,226.354272 573.746265,226.067010 574.492042,224.398680 575.381450,222.459660 576.116178,220.868670 576.276382,220.526165 577.187887,218.609243 578.104916,216.697845 578.723634,215.432787 579.038518,214.803020 579.977644,212.913719 580.933343,211.040991 581.618353,209.709641 581.894566,209.173787 582.872362,207.323156 583.855683,205.478049 584.855576,203.649515 584.855576,203.643991 585.860993,201.826505 586.877459,200.014544 587.904974,198.213632 588.523692,197.147447 588.943537,196.423768 589.993149,194.644952 591.053809,192.877185 592.119993,191.114943 592.760809,190.081904 593.202750,189.369273 594.291032,187.629127 595.390362,185.900030 596.506265,184.187506 597.622168,182.474982 597.793420,182.220865 598.754644,180.779030 599.892644,179.088603 601.047216,177.414749 602.207313,175.746419 603.378459,174.089137 604.068993,173.116865 604.555129,172.437380 605.748372,170.802195 606.947139,169.172535 608.156954,167.553924 609.372294,165.940836 610.604206,164.344322 611.841643,162.753332 612.725527,161.631904 613.090129,161.173390 614.349663,159.604497 615.614721,158.041128 616.890828,156.488807 618.177983,154.947536 619.476187,153.417312 620.779915,151.892613 622.094692,150.378963 623.420517,148.876361 624.751866,147.379283 626.094264,145.893254 627.447711,144.418274 628.812206,142.954342 630.182225,141.495934 631.563293,140.048575 632.955410,138.612264 634.353051,137.181478 635.767264,135.767264 637.181478,134.353051 638.612264,132.955410 640.048575,131.563293 641.495934,130.182225 642.954342,128.812206 644.418274,127.447711 645.893254,126.094264 647.379283,124.751866 648.876361,123.420517 650.378963,122.094692 651.892613,120.779915 653.417312,119.476187 654.947536,118.177983 656.488807,116.890828 658.041128,115.614721 659.604497,114.349663 661.173390,113.090129 661.631904,112.725527 662.753332,111.841643 664.344322,110.604206 665.940836,109.372294 667.553924,108.156954 669.172535,106.947139 670.802195,105.748372 672.437380,104.555129 673.116865,104.068993 674.089137,103.378459 675.746419,102.207313 677.414749,101.047216 679.088603,99.892644 680.779030,98.754644 682.220865,97.793420 682.474982,97.622168 684.187506,96.506265 685.900030,95.390362 687.629127,94.291032 689.369273,93.202750 690.081904,92.760809 691.114943,92.119993 692.877185,91.053809 694.644952,89.993149 696.423768,88.943537 697.147447,88.523692 698.213632,87.904974 700.014544,86.877459 701.826505,85.860993 703.643991,84.855576 703.649515,84.855576 705.478049,83.855683 707.323156,82.872362 709.173787,81.894566 709.709641,81.618353 711.040991,80.933343 712.913719,79.977644 714.803020,79.038518 715.432787,78.723634 716.697845,78.104916 718.609243,77.187887 720.526165,76.276382 720.868670,76.116178 722.459660,75.381450 724.398680,74.492042 726.067010,73.746265 726.354272,73.619207 728.320913,72.757421 730.298602,71.906683 731.055427,71.586275 732.287340,71.066994 734.287126,70.238353 735.872592,69.597537 736.303485,69.426285 738.325369,68.619741 740.363825,67.829770 740.529553,67.769003 742.413330,67.050848 744.479407,66.288499 745.048407,66.078576 746.551009,65.531673 748.639184,64.791421 749.445728,64.509683 750.738407,64.062217 752.854203,63.349586 753.721514,63.062324 754.981048,62.648004 757.118941,61.957470 757.897863,61.714402 759.273407,61.283508 761.444446,60.626120 761.974776,60.465916 763.621009,59.974256 765.819669,59.344489 765.968824,59.300295 768.029378,58.725771 769.880009,58.217538 770.250135,58.118101 772.487465,57.527004 773.713853,57.212120 774.741368,56.952479 777.011844,56.394528 777.475882,56.278518 779.293368,55.847625 781.171620,55.411208 781.591465,55.317295 783.906135,54.803538 784.806591,54.604664 786.231853,54.300829 788.380795,53.858887 788.579669,53.820217 790.938533,53.350654 791.899756,53.168353 793.319494,52.903188 795.363474,52.533062 795.717028,52.472295 798.125610,52.052450 798.782999,51.941965 800.556290,51.654703 802.147280,51.406111 803.003542,51.273528 805.467367,50.914450 805.472892,50.914450 807.953290,50.566421 808.748785,50.461460 810.455785,50.240489 811.986008,50.052664 812.980377,49.936654 815.179037,49.688062 815.521542,49.649392 818.084804,49.384227 818.338920,49.356606 820.664639,49.135635 821.460134,49.063819 823.266571,48.909140 824.548202,48.804179 825.890600,48.704742 827.597600,48.583208 828.536726,48.522441 830.613852,48.395382 831.204949,48.362237 833.602483,48.235179 833.895270,48.224130 836.552444,48.113645 836.607687,48.108120 839.347726,48.019732 839.480308,48.014208 842.109862,47.953441 842.375027,47.947916 844.894095,47.909247 845.242124,47.909247 847.711473,47.898198 848.081599,47.898198 850.550949,47.909247 850.898978,47.909247 853.418046,47.947916 853.683211,47.953441 856.312764,48.014208 856.445347,48.019732 859.185386,48.108120 859.240628,48.113645 861.897803,48.224130 862.190589,48.235179 864.588123,48.362237 865.179220,48.395382 867.256347,48.522441 868.195473,48.583208 869.902473,48.704742 871.244871,48.804179 872.526502,48.909140 874.332939,49.063819 875.128434,49.135635 877.454152,49.356606 877.708269,49.384227 880.271531,49.649392 880.614036,49.688062 882.812696,49.936654 883.807065,50.052664 885.337288,50.240489 887.044288,50.461460 888.867298,49.456043 889.182181,46.942499 889.253997,46.323781 889.474968,44.406858 889.618599,43.130752 889.756705,41.860169 889.955579,39.965344 890.027395,39.302431 890.264938,36.827557 890.275987,36.722596 890.513531,34.131713 890.546676,33.717392 890.728977,31.518732 890.800793,30.634849 890.933375,28.894703 890.607443,27.999771 890.038443,27.999771 887.779016,27.999771 887.210016,27.999771 884.950589,27.999771 884.381589,27.999771 882.122162,27.999771 881.553162,27.999771 879.293735,27.999771 878.724735,27.999771 876.465308,27.999771 875.896308,27.999771 873.636880,27.999771 873.067880,27.999771 870.808453,27.999771 870.239453,27.999771 867.980026,27.999771 867.411026,27.999771 865.151599,27.999771 864.582599,27.999771 862.323172,27.999771 861.754172,27.999771 859.494745,27.999771 858.925745,27.999771 856.666318,27.999771 856.097318,27.999771 853.837891,27.999771 853.268891,27.999771 851.009463,27.999771 850.440463,27.999771 848.181036,27.999771 847.612036,27.999771 845.352609,27.999771 844.783609,27.999771 842.524182,27.999771 841.955182,27.999771 839.695755,27.999771 839.126755,27.999771 836.867328,27.999771 836.298328,27.999771 834.038901,27.999771 833.469901,27.999771 831.210474,27.999771 830.641474,27.999771 828.382046,27.999771 827.813046,27.999771 825.553619,27.999771 824.984619,27.999771 822.725192,27.999771 822.156192,27.999771 819.896765,27.999771 819.327765,27.999771 817.068338,27.999771 816.499338,27.999771 814.239911,27.999771 813.670911,27.999771 811.411484,27.999771 810.842484,27.999771 808.583057,27.999771 808.014057,27.999771 805.754629,27.999771 805.185629,27.999771 802.926202,27.999771 802.357202,27.999771 800.097775,27.999771 799.528775,27.999771 797.269348,27.999771 796.700348,27.999771 794.440921,27.999771 793.871921,27.999771 791.612494,27.999771 791.043494,27.999771 788.784067,27.999771 788.215067,27.999771 785.955640,27.999771 785.386640,27.999771 783.127212,27.999771 782.558212,27.999771 780.298785,27.999771 779.729785,27.999771 777.470358,27.999771 776.901358,27.999771 774.641931,27.999771 774.072931,27.999771 771.813504,27.999771 771.244504,27.999771 768.985077,27.999771 768.416077,27.999771 766.156650,27.999771 765.587650,27.999771 763.328223,27.999771 762.759223,27.999771 760.499795,27.999771 759.930795,27.999771 757.671368,27.999771 757.102368,27.999771 754.842941,27.999771 754.273941,27.999771 752.014514,27.999771 751.445514,27.999771 749.186087,27.999771 748.617087,27.999771 746.357660,27.999771 745.788660,27.999771 743.529233,27.999771 742.960233,27.999771 740.700806,27.999771 740.131806,27.999771 737.872378,27.999771 737.303378,27.999771 735.043951,27.999771 734.474951,27.999771 732.215524,27.999771 731.646524,27.999771 729.387097,27.999771 728.818097,27.999771 726.558670,27.999771 725.989670,27.999771 723.730243,27.999771 723.161243,27.999771 720.901816,27.999771 720.332816,27.999771 718.073389,27.999771 717.504389,27.999771 715.244961,27.999771 714.675961,27.999771 712.416534,27.999771 711.847534,27.999771 709.588107,27.999771 709.019107,27.999771 706.759680,27.999771 706.190680,27.999771 703.931253,27.999771 703.362253,27.999771 701.102826,27.999771 700.533826,27.999771 698.274399,27.999771 697.705399,27.999771 695.445972,27.999771 694.876972,27.999771 692.617544,27.999771 692.048544,27.999771 689.871981,27.916907 689.065438,27.845092 687.347389,27.613072 685.668011,27.276092 685.016147,27.115888 682.845108,26.458499 681.535855,25.972364 680.806652,25.668529 678.900778,24.745975 677.105389,23.712936 675.426011,22.563888 674.928826,22.193762 673.846069,21.315402 672.365564,19.967480 670.990021,18.514597 669.807827,17.072762 669.719438,16.956752 668.548293,15.299471 667.487632,13.531704 666.537458,11.653451 666.029225,10.465733 665.714341,9.648141 665.023807,7.510247 664.725497,6.333578 664.487953,5.217675 664.156497,2.936150 664.134399,2.742801 664.001817,0.046956 664.001817,-0.046956 664.134399,-2.742801 664.156497,-2.936150 664.487953,-5.217675 664.725497,-6.333578 665.023807,-7.510247 665.714341,-9.648141 666.029225,-10.465733 666.537458,-11.653451 667.487632,-13.531704 668.548293,-15.299471 669.719438,-16.956752 669.807827,-17.072762 670.990021,-18.514597 672.365564,-19.967480 673.846069,-21.315402 674.928826,-22.193762 675.426011,-22.563888 677.105389,-23.712936 678.900778,-24.745975 680.806652,-25.668529 681.535855,-25.972364 682.845108,-26.458499 685.016147,-27.115888 685.668011,-27.276092 687.347389,-27.613072 689.065438,-27.845092 689.871981,-27.916907 692.048544,-27.999771 692.617544,-27.999771 694.876972,-27.999771 695.445972,-27.999771 697.705399,-27.999771 698.274399,-27.999771 700.533826,-27.999771 701.102826,-27.999771 703.362253,-27.999771 703.931253,-27.999771 706.190680,-27.999771 706.759680,-27.999771 709.019107,-27.999771 709.588107,-27.999771 711.847534,-27.999771 712.416534,-27.999771 714.675961,-27.999771 715.244961,-27.999771 717.504389,-27.999771 718.073389,-27.999771 720.332816,-27.999771 720.901816,-27.999771 723.161243,-27.999771 723.730243,-27.999771 725.989670,-27.999771 726.558670,-27.999771 728.818097,-27.999771 729.387097,-27.999771 731.646524,-27.999771 732.215524,-27.999771 734.474951,-27.999771 735.043951,-27.999771 737.303378,-27.999771 737.872378,-27.999771 740.131806,-27.999771 740.700806,-27.999771 742.960233,-27.999771 743.529233,-27.999771 745.788660,-27.999771 746.357660,-27.999771 748.617087,-27.999771 749.186087,-27.999771 751.445514,-27.999771 752.014514,-27.999771 754.273941,-27.999771 754.842941,-27.999771 757.102368,-27.999771 757.671368,-27.999771 759.930795,-27.999771 760.499795,-27.999771 762.759223,-27.999771 763.328223,-27.999771 765.587650,-27.999771 766.156650,-27.999771 768.416077,-27.999771 768.985077,-27.999771 771.244504,-27.999771 771.813504,-27.999771 774.072931,-27.999771 774.641931,-27.999771 776.901358,-27.999771 777.470358,-27.999771 779.729785,-27.999771 780.298785,-27.999771 782.558212,-27.999771 783.127212,-27.999771 785.386640,-27.999771 785.955640,-27.999771 788.215067,-27.999771 788.784067,-27.999771 791.043494,-27.999771 791.612494,-27.999771 793.871921,-27.999771 794.440921,-27.999771 796.700348,-27.999771 797.269348,-27.999771 799.528775,-27.999771 800.097775,-27.999771 802.357202,-27.999771 802.926202,-27.999771 805.185629,-27.999771 805.754629,-27.999771 808.014057,-27.999771 808.583057,-27.999771 810.842484,-27.999771 811.411484,-27.999771 813.670911,-27.999771 814.239911,-27.999771 816.499338,-27.999771 817.068338,-27.999771 819.327765,-27.999771 819.896765,-27.999771 822.156192,-27.999771 822.725192,-27.999771 824.984619,-27.999771 825.553619,-27.999771 827.813046,-27.999771 828.382046,-27.999771 830.641474,-27.999771 831.210474,-27.999771 833.469901,-27.999771 834.038901,-27.999771 836.298328,-27.999771 836.867328,-27.999771 839.126755,-27.999771 839.695755,-27.999771 841.955182,-27.999771 842.524182,-27.999771 844.783609,-27.999771 845.352609,-27.999771 847.612036,-27.999771 848.181036,-27.999771 850.440463,-27.999771 851.009463,-27.999771 853.268891,-27.999771 853.837891,-27.999771 856.097318,-27.999771 856.666318,-27.999771 858.925745,-27.999771 859.494745,-27.999771 861.754172,-27.999771 862.323172,-27.999771 864.582599,-27.999771 865.151599,-27.999771 867.411026,-27.999771 867.980026,-27.999771 870.239453,-27.999771 870.808453,-27.999771 873.067880,-27.999771 873.636880,-27.999771 875.896308,-27.999771 876.465308,-27.999771 878.724735,-27.999771 879.293735,-27.999771 881.553162,-27.999771 882.122162,-27.999771 884.381589,-27.999771 884.950589,-27.999771 887.210016,-27.999771 887.779016,-27.999771 890.038443,-27.999771 890.607443,-27.999771 890.933375,-28.894703 890.800793,-30.634849 890.728977,-31.518732 890.546676,-33.717392 890.513531,-34.131713 890.275987,-36.722596 890.264938,-36.827557 890.027395,-39.302431 889.955579,-39.965344 889.756705,-41.860169 889.618599,-43.130752 889.474968,-44.406858 889.253997,-46.323781 889.182181,-46.942499 888.867298,-49.456043 887.044288,-50.461460 885.337288,-50.240489 883.807065,-50.052664 882.812696,-49.936654 880.614036,-49.688062 880.271531,-49.649392 877.708269,-49.384227 877.454152,-49.356606 875.128434,-49.135635 874.332939,-49.063819 872.526502,-48.909140 871.244871,-48.804179 869.902473,-48.704742 868.195473,-48.583208 867.256347,-48.522441 865.179220,-48.395382 864.588123,-48.362237 862.190589,-48.235179 861.897803,-48.224130 859.240628,-48.113645 859.185386,-48.108120 856.445347,-48.019732 856.312764,-48.014208 853.683211,-47.953441 853.418046,-47.947916 850.898978,-47.909247 850.550949,-47.909247 848.081599,-47.898198 847.711473,-47.898198 845.242124,-47.909247 844.894095,-47.909247 842.375027,-47.947916 842.109862,-47.953441 839.480308,-48.014208 839.347726,-48.019732 836.607687,-48.108120 836.552444,-48.113645 833.895270,-48.224130 833.602483,-48.235179 831.204949,-48.362237 830.613852,-48.395382 828.536726,-48.522441 827.597600,-48.583208 825.890600,-48.704742 824.548202,-48.804179 823.266571,-48.909140 821.460134,-49.063819 820.664639,-49.135635 818.338920,-49.356606 818.084804,-49.384227 815.521542,-49.649392 815.179037,-49.688062 812.980377,-49.936654 811.986008,-50.052664 810.455785,-50.240489 808.748785,-50.461460 807.953290,-50.566421 805.472892,-50.908926 805.467367,-50.908926 803.003542,-51.273528 802.147280,-51.406111 800.556290,-51.654703 798.782999,-51.941965 798.125610,-52.052450 795.717028,-52.472295 795.363474,-52.533062 793.319494,-52.903188 791.899756,-53.168353 790.938533,-53.350654 788.579669,-53.820217 788.380795,-53.858887 786.231853,-54.300829 784.806591,-54.604664 783.906135,-54.803538 781.591465,-55.317295 781.171620,-55.411208 779.293368,-55.847625 777.475882,-56.278518 777.011844,-56.394528 774.741368,-56.952479 773.713853,-57.212120 772.487465,-57.527004 770.250135,-58.118101 769.880009,-58.217538 768.029378,-58.725771 765.968824,-59.300295 765.819669,-59.344489 763.621009,-59.974256 761.974776,-60.465916 761.444446,-60.626120 759.273407,-61.283508 757.897863,-61.714402 757.118941,-61.957470 754.981048,-62.648004 753.721514,-63.062324 752.854203,-63.349586 750.738407,-64.062217 749.445728,-64.509683 748.639184,-64.791421 746.551009,-65.531673 745.048407,-66.078576 744.479407,-66.288499 742.413330,-67.050848 740.529553,-67.769003 740.363825,-67.829770 738.325369,-68.619741 736.303485,-69.426285 735.872592,-69.597537 734.287126,-70.238353 732.287340,-71.066994 731.055427,-71.586275 730.298602,-71.906683 728.320913,-72.757421 726.354272,-73.619207 726.067010,-73.746265 724.398680,-74.492042 722.459660,-75.381450 720.868670,-76.116178 720.526165,-76.276382 718.609243,-77.187887 716.697845,-78.104916 715.432787,-78.723634 714.803020,-79.038518 712.913719,-79.977644 711.040991,-80.933343 709.709641,-81.618353 709.173787,-81.894566 707.323156,-82.872362 705.478049,-83.855683 703.649515,-84.850052 703.643991,-84.850052 701.826505,-85.860993 700.014544,-86.877459 698.213632,-87.904974 697.147447,-88.523692 696.423768,-88.943537 694.644952,-89.993149 692.877185,-91.053809 691.114943,-92.119993 690.081904,-92.760809 689.369273,-93.202750 687.629127,-94.291032 685.900030,-95.390362 684.187506,-96.506265 682.474982,-97.622168 682.220865,-97.793420 680.779030,-98.754644 679.088603,-99.892644 677.414749,-101.047216 675.746419,-102.207313 674.089137,-103.378459 673.116865,-104.068993 672.437380,-104.555129 670.802195,-105.748372 669.172535,-106.947139 667.553924,-108.156954 665.940836,-109.372294 664.344322,-110.604206 662.753332,-111.841643 661.631904,-112.725527 661.173390,-113.090129 659.604497,-114.349663 658.041128,-115.614721 656.488807,-116.890828 654.947536,-118.177983 653.417312,-119.476187 651.892613,-120.779915 650.378963,-122.094692 648.876361,-123.420517 647.379283,-124.751866 645.893254,-126.094264 644.418274,-127.447711 642.954342,-128.812206 641.495934,-130.182225 640.048575,-131.563293 638.612264,-132.955410 637.181478,-134.353051 635.767264,-135.761740 635.761740,-135.761740 635.761740,-135.767264 634.353051,-137.181478 632.955410,-138.612264 631.563293,-140.048575 630.182225,-141.495934 628.812206,-142.954342 627.447711,-144.418274 626.094264,-145.893254 624.751866,-147.379283 623.420517,-148.876361 622.094692,-150.378963 620.779915,-151.892613 619.476187,-153.417312 618.177983,-154.947536 616.890828,-156.488807 615.614721,-158.041128 614.349663,-159.604497 613.090129,-161.173390 612.725527,-161.631904 611.841643,-162.753332 610.604206,-164.344322 609.372294,-165.940836 608.156954,-167.553924 606.947139,-169.172535 605.748372,-170.802195 604.555129,-172.437380 604.068993,-173.116865 603.378459,-174.089137 602.207313,-175.746419 601.047216,-177.414749 599.892644,-179.088603 598.754644,-180.779030 597.793420,-182.220865 597.622168,-182.474982 596.506265,-184.187506 595.390362,-185.900030 594.291032,-187.629127 593.202750,-189.369273 592.760809,-190.081904 592.119993,-191.114943 591.053809,-192.877185 589.993149,-194.644952 588.943537,-196.423768 588.523692,-197.147447 587.904974,-198.213632 586.877459,-200.014544 585.860993,-201.826505 584.850052,-203.643991 584.850052,-203.649515 583.855683,-205.478049 582.872362,-207.323156 581.894566,-209.173787 581.618353,-209.709641 580.933343,-211.040991 579.977644,-212.913719 579.038518,-214.803020 578.723634,-215.432787 578.104916,-216.697845 577.187887,-218.609243 576.276382,-220.526165 576.116178,-220.868670 575.381450,-222.459660 574.492042,-224.398680 573.746265,-226.067010 573.619207,-226.354272 572.757421,-228.320913 571.906683,-230.298602 571.586275,-231.055427 571.066994,-232.287340 570.238353,-234.287126 569.597537,-235.872592 569.426285,-236.303485 568.619741,-238.325369 567.829770,-240.363825 567.769003,-240.529553 567.050848,-242.413330 566.288499,-244.479407 566.078576,-245.048407 565.531673,-246.551009 564.791421,-248.639184 564.509683,-249.445728 564.062217,-250.738407 563.349586,-252.854203 563.062324,-253.721514 562.648004,-254.981048 561.957470,-257.118941 561.714402,-257.897863 561.283508,-259.273407 560.626120,-261.444446 560.465916,-261.974776 559.974256,-263.621009 559.344489,-265.819669 559.300295,-265.968824 558.725771,-268.029378 558.217538,-269.880009 558.118101,-270.250135 557.527004,-272.487465 557.212120,-273.713853 556.952479,-274.741368 556.394528,-277.011844 556.278518,-277.475882 555.847625,-279.293368 555.411208,-281.171620 555.317295,-281.591465 554.803538,-283.906135 554.604664,-284.806591 554.300829,-286.231853 553.858887,-288.380795 553.820217,-288.579669 553.350654,-290.938533 553.168353,-291.899756 552.903188,-293.319494 552.533062,-295.363474 552.472295,-295.717028 552.052450,-298.125610 551.941965,-298.782999 551.654703,-300.556290 551.406111,-302.147280 551.273528,-303.003542 550.908926,-305.467367 550.908926,-305.472892 550.566421,-307.953290 550.461460,-308.748785 550.240489,-310.455785 550.052664,-311.986008 549.936654,-312.980377 549.688062,-315.179037 549.649392,-315.521542 549.384227,-318.084804 549.356606,-318.338920 549.135635,-320.664639 549.063819,-321.460134 548.909140,-323.266571 548.804179,-324.548202 548.704742,-325.890600 548.583208,-327.597600 548.522441,-328.536726 548.395382,-330.613852 548.362237,-331.204949 548.235179,-333.602483 548.224130,-333.895270 548.113645,-336.552444 548.108120,-336.607687 548.019732,-339.347726 548.014208,-339.480308 547.953441,-342.109862 547.947916,-342.375027 547.909247,-344.894095 547.909247,-345.242124 547.898198,-347.711473 547.898198,-348.081599 547.909247,-350.550949 547.909247,-350.898978 547.947916,-353.418046 547.953441,-353.683211 548.014208,-356.312764 548.019732,-356.445347 548.108120,-359.185386 548.113645,-359.240628 548.224130,-361.897803 548.235179,-362.190589 548.362237,-364.588123 548.395382,-365.179220 548.522441,-367.256347 548.583208,-368.195473 548.704742,-369.902473 548.804179,-371.244871 548.909140,-372.526502 549.063819,-374.332939 549.135635,-375.128434 549.356606,-377.454152 549.384227,-377.708269 549.649392,-380.271531 549.688062,-380.614036 549.936654,-382.812696 550.052664,-383.807065 550.240489,-385.337288 550.461460,-387.044288 549.456043,-388.867298 546.942499,-389.182181 546.323781,-389.253997 544.406858,-389.474968 543.130752,-389.618599 541.860169,-389.756705 539.965344,-389.955579 539.302431,-390.027395 536.827557,-390.264938 536.722596,-390.275987 534.131713,-390.513531 533.717392,-390.546676 531.518732,-390.728977 530.634849,-390.800793 528.894703,-390.933375 527.999771,-390.607443 527.999771,-390.038443 527.999771,-387.779016 527.999771,-387.210016 527.999771,-384.950589 527.999771,-384.381589 527.999771,-382.122162 527.999771,-381.553162 527.999771,-379.293735 527.999771,-378.724735 527.999771,-376.465308 527.999771,-375.896308 527.999771,-373.636880 527.999771,-373.067880 527.999771,-370.808453 527.999771,-370.239453 527.999771,-367.980026 527.999771,-367.411026 527.999771,-365.151599 527.999771,-364.582599 527.999771,-362.323172 527.999771,-361.754172 527.999771,-359.494745 527.999771,-358.925745 527.999771,-356.666318 527.999771,-356.097318 527.999771,-353.837891 527.999771,-353.268891 527.999771,-351.009463 527.999771,-350.440463 527.999771,-348.181036 527.999771,-347.612036 527.999771,-345.352609 527.999771,-344.783609 527.999771,-342.524182 527.999771,-341.955182 527.999771,-339.695755 527.999771,-339.126755 527.999771,-336.867328 527.999771,-336.298328 527.999771,-334.038901 527.999771,-333.469901 527.999771,-331.210474 527.999771,-330.641474 527.999771,-328.382046 527.999771,-327.813046 527.999771,-325.553619 527.999771,-324.984619 527.999771,-322.725192 527.999771,-322.156192 527.999771,-319.896765 527.999771,-319.327765 527.999771,-317.068338 527.999771,-316.499338 527.999771,-314.239911 527.999771,-313.670911 527.999771,-311.411484 527.999771,-310.842484 527.999771,-308.583057 527.999771,-308.014057 527.999771,-305.754629 527.999771,-305.185629 527.999771,-302.926202 527.999771,-302.357202 527.999771,-300.097775 527.999771,-299.528775 527.999771,-297.269348 527.999771,-296.700348 527.999771,-294.440921 527.999771,-293.871921 527.999771,-291.612494 527.999771,-291.043494 527.999771,-288.784067 527.999771,-288.215067 527.999771,-285.955640 527.999771,-285.386640 527.999771,-283.127212 527.999771,-282.558212 527.999771,-280.298785 527.999771,-279.729785 527.999771,-277.470358 527.999771,-276.901358 527.999771,-274.641931 527.999771,-274.072931 527.999771,-271.813504 527.999771,-271.244504 527.999771,-268.985077 527.999771,-268.416077 527.999771,-266.156650 527.999771,-265.587650 527.999771,-263.328223 527.999771,-262.759223 527.999771,-260.499795 527.999771,-259.930795 527.999771,-257.671368 527.999771,-257.102368 527.999771,-254.842941 527.999771,-254.273941 527.999771,-252.014514 527.999771,-251.445514 527.999771,-249.186087 527.999771,-248.617087 527.999771,-246.357660 527.999771,-245.788660 527.999771,-243.529233 527.999771,-242.960233 527.999771,-240.700806 527.999771,-240.131806 527.999771,-237.872378 527.999771,-237.303378 527.999771,-235.043951 527.999771,-234.474951 527.999771,-232.215524 527.999771,-231.646524 527.999771,-229.387097 527.999771,-228.818097 527.999771,-226.558670 527.999771,-225.989670 527.999771,-223.730243 527.999771,-223.161243 527.999771,-220.901816 527.999771,-220.332816 527.999771,-218.073389 527.999771,-217.504389 527.999771,-215.244961 527.999771,-214.675961 527.999771,-212.416534 527.999771,-211.847534 527.999771,-209.588107 527.999771,-209.019107 527.999771,-206.759680 527.999771,-206.190680 527.999771,-203.931253 527.999771,-203.362253 527.999771,-201.102826 527.999771,-200.533826 527.999771,-198.274399 527.999771,-197.705399 527.999771,-195.445972 527.999771,-194.876972 527.999771,-192.617544 527.999771,-192.048544 527.916907,-189.871981 527.845092,-189.065438 527.613072,-187.347389 527.276092,-185.668011 527.115888,-185.016147 526.458499,-182.845108 525.972364,-181.535855 525.668529,-180.806652 524.745975,-178.900778 523.712936,-177.105389 522.563888,-175.426011 522.193762,-174.928826 521.315402,-173.846069 519.967480,-172.365564 518.514597,-170.990021 517.072762,-169.807827 516.956752,-169.719438 515.299471,-168.548293 513.531704,-167.487632 511.653451,-166.537458 510.465733,-166.029225 509.648141,-165.714341 507.510247,-165.023807 506.333578,-164.725497 505.217675,-164.487953 502.936150,-164.156497 502.742801,-164.134399 500.046956,-164.001817 499.953044,-164.001817 497.257199,-164.134399 497.063850,-164.156497 494.782325,-164.487953 493.666422,-164.725497 492.489753,-165.023807 490.351859,-165.714341 489.534267,-166.029225 488.346549,-166.537458 486.468296,-167.487632 484.700529,-168.548293 483.043248,-169.719438 482.927238,-169.807827 481.485403,-170.990021 480.032520,-172.365564 478.684598,-173.846069 477.806238,-174.928826 477.436112,-175.426011 476.287064,-177.105389 475.254025,-178.900778 474.331471,-180.806652 474.027636,-181.535855 473.541501,-182.845108 472.884112,-185.016147 472.723908,-185.668011 472.386928,-187.347389 472.154908,-189.065438 472.083093,-189.871981 472.000229,-192.048544 472.000229,-192.617544 472.000229,-194.876972 472.000229,-195.445972 472.000229,-197.705399 472.000229,-198.274399 472.000229,-200.533826 472.000229,-201.102826 472.000229,-203.362253 472.000229,-203.931253 472.000229,-206.190680 472.000229,-206.759680 472.000229,-209.019107 472.000229,-209.588107 472.000229,-211.847534 472.000229,-212.416534 472.000229,-214.675961 472.000229,-215.244961 472.000229,-217.504389 472.000229,-218.073389 472.000229,-220.332816 472.000229,-220.901816 472.000229,-223.161243 472.000229,-223.730243 472.000229,-225.989670 472.000229,-226.558670 472.000229,-228.818097 472.000229,-229.387097 472.000229,-231.646524 472.000229,-232.215524 472.000229,-234.474951 472.000229,-235.043951 472.000229,-237.303378 472.000229,-237.872378 472.000229,-240.131806 472.000229,-240.700806 472.000229,-242.960233 472.000229,-243.529233 472.000229,-245.788660 472.000229,-246.357660 472.000229,-248.617087 472.000229,-249.186087 472.000229,-251.445514 472.000229,-252.014514 472.000229,-254.273941 472.000229,-254.842941 472.000229,-257.102368 472.000229,-257.671368 472.000229,-259.930795 472.000229,-260.499795 472.000229,-262.759223 472.000229,-263.328223 472.000229,-265.587650 472.000229,-266.156650 472.000229,-268.416077 472.000229,-268.985077 472.000229,-271.244504 472.000229,-271.813504 472.000229,-274.072931 472.000229,-274.641931 472.000229,-276.901358 472.000229,-277.470358 472.000229,-279.729785 472.000229,-280.298785 472.000229,-282.558212 472.000229,-283.127212 472.000229,-285.386640 472.000229,-285.955640 472.000229,-288.215067 472.000229,-288.784067 472.000229,-291.043494 472.000229,-291.612494 472.000229,-293.871921 472.000229,-294.440921 472.000229,-296.700348 472.000229,-297.269348 472.000229,-299.528775 472.000229,-300.097775 472.000229,-302.357202 472.000229,-302.926202 472.000229,-305.185629 472.000229,-305.754629 472.000229,-308.014057 472.000229,-308.583057 472.000229,-310.842484 472.000229,-311.411484 472.000229,-313.670911 472.000229,-314.239911 472.000229,-316.499338 472.000229,-317.068338 472.000229,-319.327765 472.000229,-319.896765 472.000229,-322.156192 472.000229,-322.725192 472.000229,-324.984619 472.000229,-325.553619 472.000229,-327.813046 472.000229,-328.382046 472.000229,-330.641474 472.000229,-331.210474 472.000229,-333.469901 472.000229,-334.038901 472.000229,-336.298328 472.000229,-336.867328 472.000229,-339.126755 472.000229,-339.695755 472.000229,-341.955182 472.000229,-342.524182 472.000229,-344.783609 472.000229,-345.352609 472.000229,-347.612036 472.000229,-348.181036 472.000229,-350.440463 472.000229,-351.009463 472.000229,-353.268891 472.000229,-353.837891 472.000229,-356.097318 472.000229,-356.666318 472.000229,-358.925745 472.000229,-359.494745 472.000229,-361.754172 472.000229,-362.323172 472.000229,-364.582599 472.000229,-365.151599 472.000229,-367.411026 472.000229,-367.980026 472.000229,-370.239453 472.000229,-370.808453 472.000229,-373.067880 472.000229,-373.636880 472.000229,-375.896308 472.000229,-376.465308 472.000229,-378.724735 472.000229,-379.293735 472.000229,-381.553162 472.000229,-382.122162 472.000229,-384.381589 472.000229,-384.950589 472.000229,-387.210016 472.000229,-387.779016 472.000229,-390.038443 472.000229,-390.607443 471.105297,-390.933375 469.365151,-390.800793 468.481268,-390.728977 466.282608,-390.546676 465.868287,-390.513531 463.277404,-390.275987 463.172443,-390.264938 460.697569,-390.027395 460.034656,-389.955579 458.139831,-389.756705 456.869248,-389.618599 455.593142,-389.474968 453.676219,-389.253997 453.057501,-389.182181 450.543957,-388.867298 449.538540,-387.044288 449.759511,-385.337288 449.947336,-383.807065 450.063346,-382.812696 450.311938,-380.614036 450.350608,-380.271531 450.615773,-377.708269 450.643394,-377.454152 450.864365,-375.128434 450.936181,-374.332939 451.090860,-372.526502 451.195821,-371.244871 451.295258,-369.902473 451.416792,-368.195473 451.477559,-367.256347 451.604618,-365.179220 451.637763,-364.588123 451.764821,-362.190589 451.775870,-361.897803 451.886355,-359.240628 451.891880,-359.185386 451.980268,-356.445347 451.985792,-356.312764 452.046559,-353.683211 452.052084,-353.418046 452.090753,-350.898978 452.090753,-350.550949 452.101802,-348.081599 452.101802,-347.711473 452.090753,-345.242124 452.090753,-344.894095 452.052084,-342.375027 452.046559,-342.109862 451.985792,-339.480308 451.980268,-339.347726 451.891880,-336.607687 451.886355,-336.552444 451.775870,-333.895270 451.764821,-333.602483 451.637763,-331.204949 451.604618,-330.613852 451.477559,-328.536726 451.416792,-327.597600 451.295258,-325.890600 451.195821,-324.548202 451.090860,-323.266571 450.936181,-321.460134 450.864365,-320.664639 450.643394,-318.338920 450.615773,-318.084804 450.350608,-315.521542 450.311938,-315.179037 450.063346,-312.980377 449.947336,-311.986008 449.759511,-310.455785 449.538540,-308.748785 449.433579,-307.953290 449.091074,-305.472892 449.091074,-305.467367 448.726472,-303.003542 448.593889,-302.147280 448.345297,-300.556290 448.058035,-298.782999 447.947550,-298.125610 447.527705,-295.717028 447.466938,-295.363474 447.096812,-293.319494 446.831647,-291.899756 446.649346,-290.938533 446.179783,-288.579669 446.141113,-288.380795 445.699171,-286.231853 445.395336,-284.806591 445.196462,-283.906135 444.682705,-281.591465 444.588792,-281.171620 444.152375,-279.293368 443.721482,-277.475882 443.605472,-277.011844 443.047521,-274.741368 442.787880,-273.713853 442.472996,-272.487465 441.881899,-270.250135 441.782462,-269.880009 441.274229,-268.029378 440.699705,-265.968824 440.655511,-265.819669 440.025744,-263.621009 439.534084,-261.974776 439.373880,-261.444446 438.716492,-259.273407 438.285598,-257.897863 438.042530,-257.118941 437.351996,-254.981048 436.937676,-253.721514 436.650414,-252.854203 435.937783,-250.738407 435.490317,-249.445728 435.208579,-248.639184 434.468327,-246.551009 433.921424,-245.048407 433.711501,-244.479407 432.949152,-242.413330 432.230997,-240.529553 432.170230,-240.363825 431.380259,-238.325369 430.573715,-236.303485 430.402463,-235.872592 429.761647,-234.287126 428.933006,-232.287340 428.413725,-231.055427 428.093317,-230.298602 427.242579,-228.320913 426.380793,-226.354272 426.253735,-226.067010 425.507958,-224.398680 424.618550,-222.459660 423.883822,-220.868670 423.723618,-220.526165 422.812113,-218.609243 421.895084,-216.697845 421.276366,-215.432787 420.961482,-214.803020 420.022356,-212.913719 419.066657,-211.040991 418.381647,-209.709641 418.105434,-209.173787 417.127638,-207.323156 416.144317,-205.478049 415.149948,-203.649515 415.149948,-203.643991 414.139007,-201.826505 413.122541,-200.014544 412.095026,-198.213632 411.476308,-197.147447 411.056463,-196.423768 410.006851,-194.644952 408.946191,-192.877185 407.880007,-191.114943 407.239191,-190.081904 406.797250,-189.369273 405.708968,-187.629127 404.609638,-185.900030 403.493735,-184.187506 402.377832,-182.474982 402.206580,-182.220865 401.245356,-180.779030 400.107356,-179.088603 398.952784,-177.414749 397.792687,-175.746419 396.621541,-174.089137 395.931007,-173.116865 395.444871,-172.437380 394.251628,-170.802195 393.052861,-169.172535 391.843046,-167.553924 390.627706,-165.940836 389.395794,-164.344322 388.158357,-162.753332 387.274473,-161.631904 386.909871,-161.173390 385.650337,-159.604497 384.385279,-158.041128 383.109172,-156.488807 381.822017,-154.947536 380.523813,-153.417312 379.220085,-151.892613 377.905308,-150.378963 376.579483,-148.876361 375.248134,-147.379283 373.905736,-145.893254 372.552289,-144.418274 371.187794,-142.954342 369.817775,-141.495934 368.436707,-140.048575 367.044590,-138.612264 365.646949,-137.181478 364.238260,-135.767264 364.238260,-135.761740 364.232736,-135.761740 362.818522,-134.353051 361.387736,-132.955410 359.951425,-131.563293 358.504066,-130.182225 357.045658,-128.812206 355.581726,-127.447711 354.106746,-126.094264 352.620717,-124.751866 351.123639,-123.420517 349.621037,-122.094692 348.107387,-120.779915 346.582688,-119.476187 345.052464,-118.177983 343.511193,-116.890828 341.958872,-115.614721 340.395503,-114.349663 338.826610,-113.090129 338.368096,-112.725527 337.246668,-111.841643 335.655678,-110.604206 334.059164,-109.372294 332.446076,-108.156954 330.827465,-106.947139 329.197805,-105.748372 327.562620,-104.555129 326.883135,-104.068993 325.910863,-103.378459 324.253581,-102.207313 322.585251,-101.047216 320.911397,-99.892644 319.220970,-98.754644 317.779135,-97.793420 317.525018,-97.622168 315.812494,-96.506265 314.099970,-95.390362 312.370873,-94.291032 310.630727,-93.202750 309.918096,-92.760809 308.885057,-92.119993 307.122815,-91.053809 305.355048,-89.993149 303.576232,-88.943537 302.852553,-88.523692 301.786368,-87.904974 299.985456,-86.877459 298.173495,-85.860993 296.356009,-84.850052 296.350485,-84.850052 294.521951,-83.855683 292.676844,-82.872362 290.826213,-81.894566 290.290359,-81.618353 288.959009,-80.933343 287.086281,-79.977644 285.196980,-79.038518 284.567213,-78.723634 283.302155,-78.104916 281.390757,-77.187887 279.473835,-76.276382 279.131330,-76.116178 277.540340,-75.381450 275.601320,-74.492042 273.932990,-73.746265 273.645728,-73.619207 271.679087,-72.757421 269.701398,-71.906683 268.944573,-71.586275 267.712660,-71.066994 265.712874,-70.238353 264.127408,-69.597537 263.696515,-69.426285 261.674631,-68.619741 259.636175,-67.829770 259.470447,-67.769003 257.586670,-67.050848 255.520593,-66.288499 254.951593,-66.078576 253.448991,-65.531673 251.360816,-64.791421 250.554272,-64.509683 249.261593,-64.062217 247.145797,-63.349586 246.278486,-63.062324 245.018952,-62.648004 242.881059,-61.957470 242.102137,-61.714402 240.726593,-61.283508 238.555554,-60.626120 238.025224,-60.465916 236.378991,-59.974256 234.180331,-59.344489 234.031176,-59.300295 231.970622,-58.725771 230.119991,-58.217538 229.749865,-58.118101 227.512535,-57.527004 226.286147,-57.212120 225.258632,-56.952479 222.988156,-56.394528 222.524118,-56.278518 220.706632,-55.847625 218.828380,-55.411208 218.408535,-55.317295 216.093865,-54.803538 215.193409,-54.604664 213.768147,-54.300829 211.619205,-53.858887 211.420331,-53.820217 209.061467,-53.350654 208.100244,-53.168353 206.680506,-52.903188 204.636526,-52.533062 204.282972,-52.472295 201.874390,-52.052450 201.217001,-51.941965 199.443710,-51.654703 197.852720,-51.406111 196.996458,-51.273528 194.532633,-50.908926 194.527108,-50.908926 192.046710,-50.566421 191.251215,-50.461460 189.544215,-50.240489 188.013992,-50.052664 187.019623,-49.936654 184.820963,-49.688062 184.478458,-49.649392 181.915196,-49.384227 181.661080,-49.356606 179.335361,-49.135635 178.539866,-49.063819 176.733429,-48.909140 175.451798,-48.804179 174.109400,-48.704742 172.402400,-48.583208 171.463274,-48.522441 169.386148,-48.395382 168.795051,-48.362237 166.397517,-48.235179 166.104730,-48.224130 163.447556,-48.113645 163.392313,-48.108120 160.652274,-48.019732 160.519692,-48.014208 157.890138,-47.953441 157.624973,-47.947916 155.105905,-47.909247 154.757876,-47.909247 152.288527,-47.898198 151.918401,-47.898198 149.449051,-47.909247 149.101022,-47.909247 146.581954,-47.947916 146.316789,-47.953441 143.687236,-48.014208 143.554653,-48.019732 140.814614,-48.108120 140.759372,-48.113645 138.102197,-48.224130 137.809411,-48.235179 135.411877,-48.362237 134.820780,-48.395382 132.743653,-48.522441 131.804527,-48.583208 130.097527,-48.704742 128.755129,-48.804179 127.473498,-48.909140 125.667061,-49.063819 124.871566,-49.135635 122.545848,-49.356606 122.291731,-49.384227 119.728469,-49.649392 119.385964,-49.688062 117.187304,-49.936654 116.192935,-50.052664 114.662712,-50.240489 112.955712,-50.461460 111.132702,-49.456043 110.817819,-46.942499 110.746003,-46.323781 110.525032,-44.406858 110.381401,-43.130752 110.243295,-41.860169 110.044421,-39.965344 109.972605,-39.302431 109.735062,-36.827557 109.724013,-36.722596 109.486469,-34.131713 109.453324,-33.717392 109.271023,-31.518732 109.199207,-30.634849 109.066625,-28.894703 109.392557,-27.999771 109.961557,-27.999771 112.220984,-27.999771 112.789984,-27.999771 115.049411,-27.999771 115.618411,-27.999771 117.877838,-27.999771 118.446838,-27.999771 120.706265,-27.999771 121.275265,-27.999771 123.534692,-27.999771 124.103692,-27.999771 126.363120,-27.999771 126.932120,-27.999771 129.191547,-27.999771 129.760547,-27.999771 132.019974,-27.999771 132.588974,-27.999771 134.848401,-27.999771 135.417401,-27.999771 137.676828,-27.999771 138.245828,-27.999771 140.505255,-27.999771 141.074255,-27.999771 143.333682,-27.999771 143.902682,-27.999771 146.162109,-27.999771 146.731109,-27.999771 148.990537,-27.999771 149.559537,-27.999771 151.818964,-27.999771 152.387964,-27.999771 154.647391,-27.999771 155.216391,-27.999771 157.475818,-27.999771 158.044818,-27.999771 160.304245,-27.999771 160.873245,-27.999771 163.132672,-27.999771 163.701672,-27.999771 165.961099,-27.999771 166.530099,-27.999771 168.789526,-27.999771 169.358526,-27.999771 171.617954,-27.999771 172.186954,-27.999771 174.446381,-27.999771 175.015381,-27.999771 177.274808,-27.999771 177.843808,-27.999771 180.103235,-27.999771 180.672235,-27.999771 182.931662,-27.999771 183.500662,-27.999771 185.760089,-27.999771 186.329089,-27.999771 188.588516,-27.999771 189.157516,-27.999771 191.416943,-27.999771 191.985943,-27.999771 194.245371,-27.999771 194.814371,-27.999771 197.073798,-27.999771 197.642798,-27.999771 199.902225,-27.999771 200.471225,-27.999771 202.730652,-27.999771 203.299652,-27.999771 205.559079,-27.999771 206.128079,-27.999771 208.387506,-27.999771 208.956506,-27.999771 211.215933,-27.999771 211.784933,-27.999771 214.044360,-27.999771 214.613360,-27.999771 216.872788,-27.999771 217.441788,-27.999771 219.701215,-27.999771 220.270215,-27.999771 222.529642,-27.999771 223.098642,-27.999771 225.358069,-27.999771 225.927069,-27.999771 228.186496,-27.999771 228.755496,-27.999771 231.014923,-27.999771 231.583923,-27.999771 233.843350,-27.999771 234.412350,-27.999771 236.671777,-27.999771 237.240777,-27.999771 239.500205,-27.999771 240.069205,-27.999771 242.328632,-27.999771 242.897632,-27.999771 245.157059,-27.999771 245.726059,-27.999771 247.985486,-27.999771 248.554486,-27.999771 250.813913,-27.999771 251.382913,-27.999771 253.642340,-27.999771 254.211340,-27.999771 256.470767,-27.999771 257.039767,-27.999771 259.299194,-27.999771 259.868194,-27.999771 262.127622,-27.999771 262.696622,-27.999771 264.956049,-27.999771 265.525049,-27.999771 267.784476,-27.999771 268.353476,-27.999771 270.612903,-27.999771 271.181903,-27.999771 273.441330,-27.999771 274.010330,-27.999771 276.269757,-27.999771 276.838757,-27.999771 279.098184,-27.999771 279.667184,-27.999771 281.926611,-27.999771 282.495611,-27.999771 284.755039,-27.999771 285.324039,-27.999771 287.583466,-27.999771 288.152466,-27.999771 290.411893,-27.999771 290.980893,-27.999771 293.240320,-27.999771 293.809320,-27.999771 296.068747,-27.999771 296.637747,-27.999771 298.897174,-27.999771 299.466174,-27.999771 301.725601,-27.999771 302.294601,-27.999771 304.554028,-27.999771 305.123028,-27.999771 307.382456,-27.999771 307.951456,-27.999771 310.128019,-27.916907 310.934562,-27.845092 312.652611,-27.613072 314.331989,-27.276092 314.983853,-27.115888 317.154892,-26.458499" stroke="black" fill="none" /></svg>