<?xml version="1.0" encoding="utf-8" ?><svg xmlns="http://www.w3.org/2000/svg" version="1.1" viewBox="-99.997948 -89.879742 199.997948 179.759485"><polygon points="99.474827,-5.009383 99.597888,-4.387764 99.704553,-3.764323 99.794819,-3.139320 99.868679,-2.513016 99.926129,-1.885672 99.967168,-1.257548 99.991792,-0.628904 100.000000,-0.000000 100.000000,0.000000 99.991792,0.628904 99.967168,1.257548 99.926129,1.885672 99.868679,2.513016 99.794819,3.139320 99.704553,3.764323 99.597888,4.387764 99.474827,5.009383 99.335378,5.628919 99.179546,6.246111 99.007341,6.860696 98.818769,7.472412 98.613840,8.080996 98.392562,8.686186 98.154945,9.287717 97.900998,9.885325 97.630731,10.478744 97.344153,11.067709 97.041274,11.651951 96.722103,12.231204 96.386649,12.805198 96.034919,13.373662 95.666921,13.936324 95.282661,14.492911 94.882143,15.043149 94.465372,15.586760 94.032348,16.123465 93.583071,16.652985 93.117539,17.175035 92.635746,17.689329 92.137683,18.195580 91.623339,18.693495 91.092696,19.182779 90.545736,19.663134 89.982433,20.134255 89.402756,20.595837 88.806668,21.047567 88.194125,21.489126 87.565076,21.920192 86.919462,22.340435 86.257212,22.749516 85.578249,23.147092 84.882479,23.532808 84.169800,23.906302 83.440092,24.267199 82.693222,24.615114 81.929037,24.949649 81.147366,25.270391 80.348013,25.576911 79.530762,25.868764 78.695364,26.145484 77.841542,26.406582 76.968983,26.651545 76.077336,26.879833 75.166202,27.090873 74.235134,27.284059 73.283626,27.458742 72.311105,27.614229 71.316923,27.749773 70.300344,27.864567 69.260528,27.957737 68.196518,28.028324 67.107217,28.075276 65.991363,28.097433 64.847496,28.093498 63.673923,28.062022 62.468661,28.001363 61.229380,27.909650 59.953314,27.784728 58.637154,27.624089 57.276893,27.424774 55.867626,27.183247 54.403250,26.895212 52.876047,26.555349 51.276035,26.156919 49.589968,25.691150 47.799668,25.146223 45.879090,24.505497 43.788681,23.744121 41.463169,22.821745 38.780059,21.663841 35.449461,20.096830 30.171658,17.356418 33.101402,19.319864 36.758218,21.765282 39.383447,23.655535 41.514566,25.292242 43.336699,26.777530 44.940187,28.160410 46.377197,29.468702 47.681103,30.719886 48.874786,31.925721 49.974745,33.094515 50.993340,34.232361 51.940118,35.343854 52.822631,36.432538 53.646977,37.501197 54.418165,38.552051 55.140368,39.586888 55.817107,40.607164 56.451389,41.614073 57.045802,42.608600 57.602595,43.591559 58.123742,44.563626 58.610981,45.525364 59.065856,46.477238 59.489749,47.419635 59.883900,48.352872 60.249429,49.277211 60.587353,50.192862 60.898599,51.099992 61.184016,51.998733 61.444387,52.889183 61.680431,53.771414 61.892817,54.645471 62.082168,55.511378 62.249064,56.369141 62.394047,57.218748 62.517630,58.060172 62.620294,58.893373 62.702495,59.718299 62.764663,60.534888 62.807211,61.343068 62.830529,62.142757 62.834992,62.933869 62.820959,63.716308 62.788775,64.489974 62.738774,65.254761 62.671275,66.010556 62.586589,66.757246 62.485019,67.494711 62.366856,68.222827 62.232385,68.941471 62.081886,69.650512 61.915630,70.349821 61.733882,71.039264 61.536905,71.718708 61.324955,72.388015 61.098283,73.047049 60.857139,73.695670 60.601766,74.333738 60.332408,74.961115 60.049304,75.577657 59.752690,76.183225 59.442801,76.777676 59.119869,77.360867 58.784127,77.932658 58.435802,78.492905 58.075125,79.041466 57.702320,79.578201 57.317616,80.102967 56.921236,80.615622 56.513406,81.116027 56.094351,81.604042 55.664292,82.079525 55.223455,82.542339 54.772061,82.992344 54.310335,83.429404 53.838499,83.853380 53.356775,84.264136 52.865388,84.661538 52.364560,85.045449 51.854514,85.415737 51.335475,85.772268 50.807666,86.114909 50.271312,86.443529 49.726636,86.757997 49.173866,87.058184 48.613225,87.343959 48.044941,87.615195 47.469240,87.871764 46.886348,88.113538 46.296495,88.340391 45.699908,88.552198 45.096815,88.748832 44.487448,88.930169 43.872035,89.096084 43.250808,89.246454 42.623998,89.381153 41.991837,89.500059 41.354559,89.603048 40.712396,89.689994 40.065583,89.760776 39.414356,89.815266 38.758948,89.853342 38.099598,89.874876 37.436542,89.879742 36.770017,89.867813 36.100263,89.838960 35.427519,89.793051 34.752025,89.729956 34.074023,89.649538 33.393753,89.551663 32.711458,89.436190 32.027383,89.302976 31.341770,89.151877 30.654866,88.982743 29.966917,88.795419 29.278170,88.589747 28.588872,88.365562 27.899274,88.122695 27.209625,87.860969 26.520176,87.580199 25.831181,87.280194 25.142894,86.960752 24.455568,86.621662 23.769462,86.262701 23.084834,85.883634 22.401942,85.484213 21.721050,85.064174 21.042419,84.623237 20.366317,84.161103 19.693010,83.677452 19.022768,83.171942 18.355865,82.644204 17.692576,82.093841 17.033179,81.520424 16.377957,80.923488 15.727195,80.302527 15.081183,79.656991 14.440215,78.986279 13.804592,78.289729 13.174617,77.566617 12.550602,76.816141 11.932866,76.037415 11.321734,75.229452 10.717541,74.391151 10.120631,73.521280 9.531361,72.618450 8.950100,71.681090 8.377229,70.707413 7.813150,69.695374 7.258282,68.642615 6.713067,67.546403 6.177973,66.403539 5.653501,65.210244 5.140188,63.962009 4.638616,62.653389 4.149424,61.277709 3.673318,59.826656 3.211092,58.289667 2.763650,56.652990 2.332046,54.898182 1.917537,52.999548 1.521671,50.919448 1.146441,48.598789 0.794571,45.934833 0.470178,42.716191 0.180792,38.326587 -0.054730,34.807631 -0.320365,40.748549 -0.628593,44.416436 -0.967373,47.319030 -1.331329,49.794170 -1.717162,51.985206 -2.122566,53.968838 -2.545795,55.791747 -2.985461,57.484809 -3.440417,59.069674 -3.909688,60.562203 -4.392430,61.974407 -4.887896,63.315632 -5.395414,64.593309 -5.914377,65.813457 -6.444224,66.981023 -6.984439,68.100129 -7.534538,69.174245 -8.094065,70.206328 -8.662591,71.198913 -9.239706,72.154193 -9.825019,73.074079 -10.418154,73.960245 -11.018749,74.814167 -11.626454,75.637154 -12.240929,76.430369 -12.861845,77.194853 -13.488879,77.931542 -14.121717,78.641277 -14.760050,79.324822 -15.403577,79.982867 -16.052000,80.616044 -16.705029,81.224926 -17.362374,81.810042 -18.023752,82.371877 -18.688882,82.910876 -19.357489,83.427452 -20.029297,83.921988 -20.704035,84.394839 -21.381435,84.846336 -22.061230,85.276787 -22.743154,85.686483 -23.426947,86.075695 -24.112347,86.444679 -24.799095,86.793677 -25.486933,87.122916 -26.175606,87.432614 -26.864860,87.722976 -27.554440,87.994201 -28.244095,88.246475 -28.933574,88.479979 -29.622628,88.694886 -30.311007,88.891364 -30.998464,89.069574 -31.684753,89.229672 -32.369628,89.371809 -33.052843,89.496135 -33.734156,89.602791 -34.413323,89.691921 -35.090101,89.763660 -35.764250,89.818146 -36.435529,89.855510 -37.103698,89.875885 -37.768518,89.879401 -38.429751,89.866184 -39.087160,89.836364 -39.740507,89.790065 -40.389556,89.727414 -41.034073,89.648534 -41.673823,89.553551 -42.308572,89.442588 -42.938086,89.315770 -43.562134,89.173220 -44.180483,89.015062 -44.792902,88.841420 -45.399160,88.652419 -45.999029,88.448183 -46.592278,88.228838 -47.178679,87.994508 -47.758003,87.745321 -48.330025,87.481403 -48.894515,87.202881 -49.451249,86.909884 -50.000000,86.602540 -50.540543,86.280980 -51.072653,85.945333 -51.596105,85.595730 -52.110675,85.232305 -52.616140,84.855188 -53.112276,84.464515 -53.598859,84.060419 -54.075667,83.643036 -54.542476,83.212501 -54.999064,82.768951 -55.445207,82.312524 -55.880683,81.843358 -56.305268,81.361592 -56.718739,80.867365 -57.120871,80.360817 -57.511441,79.842089 -57.890224,79.311321 -58.256993,78.768655 -58.611523,78.214233 -58.953585,77.648196 -59.282951,77.070688 -59.599390,76.481849 -59.902671,75.881822 -60.192560,75.270749 -60.468821,74.648772 -60.731216,74.016032 -60.979504,73.372669 -61.213443,72.718825 -61.432786,72.054637 -61.637281,71.380245 -61.826676,70.695784 -62.000711,70.001391 -62.159122,69.297200 -62.301641,68.583341 -62.427993,67.859945 -62.537896,67.127139 -62.631061,66.385047 -62.707192,65.633789 -62.765982,64.873484 -62.807115,64.104245 -62.830265,63.326179 -62.835094,62.539391 -62.821249,61.743979 -62.788365,60.940034 -62.736057,60.127640 -62.663925,59.306874 -62.571548,58.477803 -62.458483,57.640485 -62.324262,56.794965 -62.168388,55.941278 -61.990335,55.079442 -61.789541,54.209462 -61.565407,53.331323 -61.317286,52.444989 -61.044486,51.550404 -60.746256,50.647483 -60.421781,49.736111 -60.070176,48.816140 -59.690470,47.887381 -59.281595,46.949600 -58.842374,46.002508 -58.371499,45.045755 -57.867511,44.078916 -57.328772,43.101480 -56.753431,42.112830 -56.139385,41.112224 -55.484222,40.098766 -54.785156,39.071374 -54.038938,38.028729 -53.241740,36.969220 -52.388997,35.890858 -51.475195,34.791160 -50.493562,33.666991 -49.435630,32.514325 -48.290574,31.327890 -47.044173,30.100597 -45.677102,28.822615 -44.161928,27.479709 -42.457352,26.050049 -40.495795,24.497285 -38.151466,22.752596 -35.129096,20.651719 -30.116928,17.451214 -33.282194,19.006723 -37.228396,20.950909 -40.178018,22.279298 -42.661007,23.306548 -44.858371,24.141918 -46.857724,24.839138 -48.709243,25.429480 -50.444753,25.933104 -52.085878,26.363946 -53.648063,26.732141 -55.142765,27.045348 -56.578734,27.309535 -57.962819,27.529471 -59.300478,27.709046 -60.596138,27.851488 -61.853434,27.959515 -63.075389,28.035451 -64.264539,28.081300 -65.423031,28.098813 -66.552695,28.089532 -67.655103,28.054824 -68.731612,27.995916 -69.783397,27.913913 -70.811483,27.809817 -71.816766,27.684543 -72.800031,27.538930 -73.761969,27.373756 -74.703190,27.189738 -75.624232,26.987546 -76.525570,26.767808 -77.407626,26.531113 -78.270774,26.278017 -79.115348,26.009046 -79.941640,25.724700 -80.749913,25.425456 -81.540399,25.111770 -82.313304,24.784079 -83.068812,24.442804 -83.807083,24.088349 -84.528260,23.721106 -85.232471,23.341455 -85.919825,22.949764 -86.590421,22.546392 -87.244344,22.131687 -87.881667,21.705992 -88.502456,21.269638 -89.106766,20.822953 -89.694643,20.366258 -90.266129,19.899868 -90.821258,19.424091 -91.360056,18.939234 -91.882547,18.445598 -92.388749,17.943478 -92.878676,17.433169 -93.352337,16.914961 -93.809741,16.389141 -94.250891,15.855993 -94.675789,15.315800 -95.084434,14.768841 -95.476823,14.215394 -95.852953,13.655735 -96.212818,13.090138 -96.556411,12.518875 -96.883725,11.942218 -97.194751,11.360437 -97.489480,10.773800 -97.767904,10.182575 -98.030012,9.587028 -98.275795,8.987425 -98.505244,8.384032 -98.718348,7.777112 -98.915100,7.166929 -99.095490,6.553745 -99.259509,5.937825 -99.407150,5.319428 -99.538406,4.698818 -99.653270,4.076255 -99.751736,3.452000 -99.833800,2.826314 -99.899455,2.199458 -99.948700,1.571692 -99.981532,0.943275 -99.997948,0.314468 -99.997948,-0.314468 -99.981532,-0.943275 -99.948700,-1.571692 -99.899455,-2.199458 -99.833800,-2.826314 -99.751736,-3.452000 -99.653270,-4.076255 -99.538406,-4.698818 -99.407150,-5.319428 -99.259509,-5.937825 -99.095490,-6.553745 -98.915100,-7.166929 -98.718348,-7.777112 -98.505244,-8.384032 -98.275795,-8.987425 -98.030012,-9.587028 -97.767904,-10.182575 -97.489480,-10.773800 -97.194751,-11.360437 -96.883725,-11.942218 -96.556411,-12.518875 -96.212818,-13.090138 -95.852953,-13.655735 -95.476823,-14.215394 -95.084434,-14.768841 -94.675789,-15.315800 -94.250891,-15.855993 -93.809741,-16.389141 -93.352337,-16.914961 -92.878676,-17.433169 -92.388749,-17.943478 -91.882547,-18.445598 -91.360056,-18.939234 -90.821258,-19.424091 -90.266129,-19.899868 -89.694643,-20.366258 -89.106766,-20.822953 -88.502456,-21.269638 -87.881667,-21.705992 -87.244344,-22.131687 -86.590421,-22.546392 -85.919825,-22.949764 -85.232471,-23.341455 -84.528260,-23.721106 -83.807083,-24.088349 -83.068812,-24.442804 -82.313304,-24.784079 -81.540399,-25.111770 -80.749913,-25.425456 -79.941640,-25.724700 -79.115348,-26.009046 -78.270774,-26.278017 -77.407626,-26.531113 -76.525570,-26.767808 -75.624232,-26.987546 -74.703190,-27.189738 -73.761969,-27.373756 -72.800031,-27.538930 -71.816766,-27.684543 -70.811483,-27.809817 -69.783397,-27.913913 -68.731612,-27.995916 -67.655103,-28.054824 -66.552695,-28.089532 -65.423031,-28.098813 -64.264539,-28.081300 -63.075389,-28.035451 -61.853434,-27.959515 -60.596138,-27.851488 -59.300478,-27.709046 -57.962819,-27.529471 -56.578734,-27.309535 -55.142765,-27.045348 -53.648063,-26.732141 -52.085878,-26.363946 -50.444753,-25.933104 -48.709243,-25.429480 -46.857724,-24.839138 -44.858371,-24.141918 -42.661007,-23.306548 -40.178018,-22.279298 -37.228396,-20.950909 -33.282194,-19.006723 -30.116928,-17.451214 -35.129096,-20.651719 -38.151466,-22.752596 -40.495795,-24.497285 -42.457352,-26.050049 -44.161928,-27.479709 -45.677102,-28.822615 -47.044173,-30.100597 -48.290574,-31.327890 -49.435630,-32.514325 -50.493562,-33.666991 -51.475195,-34.791160 -52.388997,-35.890858 -53.241740,-36.969220 -54.038938,-38.028729 -54.785156,-39.071374 -55.484222,-40.098766 -56.139385,-41.112224 -56.753431,-42.112830 -57.328772,-43.101480 -57.867511,-44.078916 -58.371499,-45.045755 -58.842374,-46.002508 -59.281595,-46.949600 -59.690470,-47.887381 -60.070176,-48.816140 -60.421781,-49.736111 -60.746256,-50.647483 -61.044486,-51.550404 -61.317286,-52.444989 -61.565407,-53.331323 -61.789541,-54.209462 -61.990335,-55.079442 -62.168388,-55.941278 -62.324262,-56.794965 -62.458483,-57.640485 -62.571548,-58.477803 -62.663925,-59.306874 -62.736057,-60.127640 -62.788365,-60.940034 -62.821249,-61.743979 -62.835094,-62.539391 -62.830265,-63.326179 -62.807115,-64.104245 -62.765982,-64.873484 -62.707192,-65.633789 -62.631061,-66.385047 -62.537896,-67.127139 -62.427993,-67.859945 -62.301641,-68.583341 -62.159122,-69.297200 -62.000711,-70.001391 -61.826676,-70.695784 -61.637281,-71.380245 -61.432786,-72.054637 -61.213443,-72.718825 -60.979504,-73.372669 -60.731216,-74.016032 -60.468821,-74.648772 -60.192560,-75.270749 -59.902671,-75.881822 -59.599390,-76.481849 -59.282951,-77.070688 -58.953585,-77.648196 -58.611523,-78.214233 -58.256993,-78.768655 -57.890224,-79.311321 -57.511441,-79.842089 -57.120871,-80.360817 -56.718739,-80.867365 -56.305268,-81.361592 -55.880683,-81.843358 -55.445207,-82.312524 -54.999064,-82.768951 -54.542476,-83.212501 -54.075667,-83.643036 -53.598859,-84.060419 -53.112276,-84.464515 -52.616140,-84.855188 -52.110675,-85.232305 -51.596105,-85.595730 -51.072653,-85.945333 -50.540543,-86.280980 -50.000000,-86.602540 -49.451249,-86.909884 -48.894515,-87.202881 -48.330025,-87.481403 -47.758003,-87.745321 -47.178679,-87.994508 -46.592278,-88.228838 -45.999029,-88.448183 -45.399160,-88.652419 -44.792902,-88.841420 -44.180483,-89.015062 -43.562134,-89.173220 -42.938086,-89.315770 -42.308572,-89.442588 -41.673823,-89.553551 -41.034073,-89.648534 -40.389556,-89.727414 -39.740507,-89.790065 -39.087160,-89.836364 -38.429751,-89.866184 -37.768518,-89.879401 -37.103698,-89.875885 -36.435529,-89.855510 -35.764250,-89.818146 -35.090101,-89.763660 -34.413323,-89.691921 -33.734156,-89.602791 -33.052843,-89.496135 -32.369628,-89.371809 -31.684753,-89.229672 -30.998464,-89.069574 -30.311007,-88.891364 -29.622628,-88.694886 -28.933574,-88.479979 -28.244095,-88.246475 -27.554440,-87.994201 -26.864860,-87.722976 -26.175606,-87.432614 -25.486933,-87.122916 -24.799095,-86.793677 -24.112347,-86.444679 -23.426947,-86.075695 -22.743154,-85.686483 -22.061230,-85.276787 -21.381435,-84.846336 -20.704035,-84.394839 -20.029297,-83.921988 -19.357489,-83.427452 -18.688882,-82.910876 -18.023752,-82.371877 -17.362374,-81.810042 -16.705029,-81.224926 -16.052000,-80.616044 -15.403577,-79.982867 -14.760050,-79.324822 -14.121717,-78.641277 -13.488879,-77.931542 -12.861845,-77.194853 -12.240929,-76.430369 -11.626454,-75.637154 -11.018749,-74.814167 -10.418154,-73.960245 -9.825019,-73.074079 -9.239706,-72.154193 -8.662591,-71.198913 -8.094065,-70.206328 -7.534538,-69.174245 -6.984439,-68.100129 -6.444224,-66.981023 -5.914377,-65.813457 -5.395414,-64.593309 -4.887896,-63.315632 -4.392430,-61.974407 -3.909688,-60.562203 -3.440417,-59.069674 -2.985461,-57.484809 -2.545795,-55.791747 -2.122566,-53.968838 -1.717162,-51.985206 -1.331329,-49.794170 -0.967373,-47.319030 -0.628593,-44.416436 -0.320365,-40.748549 -0.054730,-34.807631 0.180792,-38.326587 0.470178,-42.716191 0.794571,-45.934833 1.146441,-48.598789 1.521671,-50.919448 1.917537,-52.999548 2.332046,-54.898182 2.763650,-56.652990 3.211092,-58.289667 3.673318,-59.826656 4.149424,-61.277709 4.638616,-62.653389 5.140188,-63.962009 5.653501,-65.210244 6.177973,-66.403539 6.713067,-67.546403 7.258282,-68.642615 7.813150,-69.695374 8.377229,-70.707413 8.950100,-71.681090 9.531361,-72.618450 10.120631,-73.521280 10.717541,-74.391151 11.321734,-75.229452 11.932866,-76.037415 12.550602,-76.816141 13.174617,-77.566617 13.804592,-78.289729 14.440215,-78.986279 15.081183,-79.656991 15.727195,-80.302527 16.377957,-80.923488 17.033179,-81.520424 17.692576,-82.093841 18.355865,-82.644204 19.022768,-83.171942 19.693010,-83.677452 20.366317,-84.161103 21.042419,-84.623237 21.721050,-85.064174 22.401942,-85.484213 23.084834,-85.883634 23.769462,-86.262701 24.455568,-86.621662 25.142894,-86.960752 25.831181,-87.280194 26.520176,-87.580199 27.209625,-87.860969 27.899274,-88.122695 28.588872,-88.365562 29.278170,-88.589747 29.966917,-88.795419 30.654866,-88.982743 31.341770,-89.151877 32.027383,-89.302976 32.711458,-89.436190 33.393753,-89.551663 34.074023,-89.649538 34.752025,-89.729956 35.427519,-89.793051 36.100263,-89.838960 36.770017,-89.867813 37.436542,-89.879742 38.099598,-89.874876 38.758948,-89.853342 39.414356,-89.815266 40.065583,-89.760776 40.712396,-89.689994 41.354559,-89.603048 41.991837,-89.500059 42.623998,-89.381153 43.250808,-89.246454 43.872035,-89.096084 44.487448,-88.930169 45.096815,-88.748832 45.699908,-88.552198 46.296495,-88.340391 46.886348,-88.113538 47.469240,-87.871764 48.044941,-87.615195 48.613225,-87.343959 49.173866,-87.058184 49.726636,-86.757997 50.271312,-86.443529 50.807666,-86.114909 51.335475,-85.772268 51.854514,-85.415737 52.364560,-85.045449 52.865388,-84.661538 53.356775,-84.264136 53.838499,-83.853380 54.310335,-83.429404 54.772061,-82.992344 55.223455,-82.542339 55.664292,-82.079525 56.094351,-81.604042 56.513406,-81.116027 56.921236,-80.615622 57.317616,-80.102967 57.702320,-79.578201 58.075125,-79.041466 58.435802,-78.492905 58.784127,-77.932658 59.119869,-77.360867 59.442801,-76.777676 59.752690,-76.183225 60.049304,-75.577657 60.332408,-74.961115 60.601766,-74.333738 60.857139,-73.695670 61.098283,-73.047049 61.324955,-72.388015 61.536905,-71.718708 61.733882,-71.039264 61.915630,-70.349821 62.081886,-69.650512 62.232385,-68.941471 62.366856,-68.222827 62.485019,-67.494711 62.586589,-66.757246 62.671275,-66.010556 62.738774,-65.254761 62.788775,-64.489974 62.820959,-63.716308 62.834992,-62.933869 62.830529,-62.142757 62.807211,-61.343068 62.764663,-60.534888 62.702495,-59.718299 62.620294,-58.893373 62.517630,-58.060172 62.394047,-57.218748 62.249064,-56.369141 62.082168,-55.511378 61.892817,-54.645471 61.680431,-53.771414 61.444387,-52.889183 61.184016,-51.998733 60.898599,-51.099992 60.587353,-50.192862 60.249429,-49.277211 59.883900,-48.352872 59.489749,-47.419635 59.065856,-46.477238 58.610981,-45.525364 58.123742,-44.563626 57.602595,-43.591559 57.045802,-42.608600 56.451389,-41.614073 55.817107,-40.607164 55.140368,-39.586888 54.418165,-38.552051 53.646977,-37.501197 52.822631,-36.432538 51.940118,-35.343854 50.993340,-34.232361 49.974745,-33.094515 48.874786,-31.925721 47.681103,-30.719886 46.377197,-29.468702 44.940187,-28.160410 43.336699,-26.777530 41.514566,-25.292242 39.383447,-23.655535 36.758218,-21.765282 33.101402,-19.319864 30.171658,-17.356418 35.449461,-20.096830 38.780059,-21.663841 41.463169,-22.821745 43.788681,-23.744121 45.879090,-24.505497 47.799668,-25.146223 49.589968,-25.691150 51.276035,-26.156919 52.876047,-26.555349 54.403250,-26.895212 55.867626,-27.183247 57.276893,-27.424774 58.637154,-27.624089 59.953314,-27.784728 61.229380,-27.909650 62.468661,-28.001363 63.673923,-28.062022 64.847496,-28.093498 65.991363,-28.097433 67.107217,-28.075276 68.196518,-28.028324 69.260528,-27.957737 70.300344,-27.864567 71.316923,-27.749773 72.311105,-27.614229 73.283626,-27.458742 74.235134,-27.284059 75.166202,-27.090873 76.077336,-26.879833 76.968983,-26.651545 77.841542,-26.406582 78.695364,-26.145484 79.530762,-25.868764 80.348013,-25.576911 81.147366,-25.270391 81.929037,-24.949649 82.693222,-24.615114 83.440092,-24.267199 84.169800,-23.906302 84.882479,-23.532808 85.578249,-23.147092 86.257212,-22.749516 86.919462,-22.340435 87.565076,-21.920192 88.194125,-21.489126 88.806668,-21.047567 89.402756,-20.595837 89.982433,-20.134255 90.545736,-19.663134 91.092696,-19.182779 91.623339,-18.693495 92.137683,-18.195580 92.635746,-17.689329 93.117539,-17.175035 93.583071,-16.652985 94.032348,-16.123465 94.465372,-15.586760 94.882143,-15.043149 95.282661,-14.492911 95.666921,-13.936324 96.034919,-13.373662 96.386649,-12.805198 96.722103,-12.231204 97.041274,-11.651951 97.344153,-11.067709 97.630731,-10.478744 97.900998,-9.885325 98.154945,-9.287717 98.392562,-8.686186 98.613840,-8.080996 98.818769,-7.472412 99.007341,-6.860696 99.179546,-6.246111 99.335378,-5.628919" stroke="black" fill="none" /></svg>